<svg width="1583" height="425" viewBox="0 0 1583 425" xmlns="http://www.w3.org/2000/svg"><title>wa-cop-logo</title><g fill="none" fill-rule="evenodd"><path d="M330.347 97.532L264.21 352H226.1l-53.493-211.23L120.313 352H83.056L15.723 97.532h34.692l53.49 211.572 52.638-211.572h34.35l53.15 213.623 53.15-213.623h33.154zM580.884 352h-36.06l-24.95-70.923h-110.06L384.864 352h-34.35L443.14 97.532h45.117L580.884 352zm-71.436-99.976l-44.604-124.926-44.776 124.926h89.38zm208.667 4.102h-106.64v-30.933h106.64v30.933zm256.86 77.417c-6.266 2.734-11.934 5.298-17.004 7.69-5.07 2.393-11.705 4.9-19.908 7.52-6.95 2.165-14.498 4.016-22.645 5.554-8.146 1.538-17.118 2.307-26.916 2.307-18.456 0-35.233-2.592-50.33-7.776-15.095-5.184-28.225-13.3-39.39-24.353-10.938-10.823-19.483-24.58-25.635-41.272-6.153-16.69-9.23-36.088-9.23-58.19 0-20.964 2.963-39.706 8.888-56.226 5.924-16.52 14.47-30.477 25.635-41.87 10.823-11.052 23.897-19.483 39.22-25.293 15.325-5.81 32.33-8.716 51.014-8.716 13.672 0 27.315 1.652 40.93 4.956 13.615 3.304 28.74 9.115 45.374 17.432v40.16h-2.564c-14.014-11.734-27.913-20.28-41.7-25.634-13.785-5.355-28.54-8.032-44.262-8.032-12.874 0-24.467 2.08-34.778 6.238-10.31 4.158-19.51 10.624-27.6 19.397-7.86 8.545-13.985 19.34-18.37 32.385-4.388 13.045-6.58 28.113-6.58 45.202 0 17.888 2.42 33.27 7.262 46.143 4.842 12.874 11.08 23.356 18.714 31.445 7.975 8.43 17.29 14.67 27.942 18.714 10.652 4.044 21.903 6.067 33.752 6.067 16.292 0 31.56-2.79 45.8-8.373 14.242-5.583 27.572-13.957 39.99-25.122h2.394v39.648zm583.448-159.106c0 11.28-1.965 21.732-5.896 31.36-3.93 9.627-9.428 17.972-16.492 25.036-8.773 8.773-19.14 15.352-31.103 19.74-11.963 4.385-27.06 6.578-45.288 6.578h-33.838V352h-33.838V97.532h69.043c15.268 0 28.2 1.282 38.795 3.845 10.595 2.564 19.995 6.58 28.198 12.05 9.684 6.493 17.175 14.582 22.473 24.266 5.298 9.685 7.947 21.932 7.947 36.744zm-35.205.854c0-8.772-1.538-16.405-4.614-22.9-3.077-6.494-7.748-11.79-14.014-15.893-5.47-3.532-11.707-6.067-18.714-7.605-7.006-1.538-15.865-2.307-26.574-2.307h-33.496V228.27h28.54c13.672 0 24.78-1.225 33.325-3.675 8.546-2.45 15.496-6.35 20.85-11.706 5.355-5.47 9.144-11.224 11.365-17.262 2.222-6.04 3.333-12.817 3.333-20.337z" fill="#205493"/><path d="M1175.902 99c-17.535 0-34.547 3.435-50.566 10.21-15.468 6.543-29.36 15.91-41.29 27.837-11.927 11.93-21.293 25.82-27.836 41.29-6.775 16.018-10.21 33.03-10.21 50.565 0 17.534 3.435 34.547 10.21 50.564 6.543 15.47 15.91 29.36 27.837 41.29 11.93 11.928 25.82 21.294 41.29 27.837 16.018 6.775 33.03 10.21 50.565 10.21 17.534 0 34.547-3.435 50.564-10.21 15.47-6.543 29.36-15.91 41.29-27.837 11.928-11.93 21.294-25.82 27.837-41.29 6.775-16.017 10.21-33.03 10.21-50.564 0-17.535-3.435-34.547-10.21-50.565-6.543-15.47-15.91-29.36-27.837-41.29-11.93-11.928-25.82-21.294-41.29-27.837-16.017-6.775-33.03-10.21-50.564-10.21m0 4.636c69.182 0 125.266 56.083 125.266 125.266 0 69.182-56.084 125.266-125.266 125.266-69.183 0-125.266-56.084-125.266-125.266 0-69.183 56.083-125.266 125.266-125.266" stroke="#205493" stroke-width="21" fill="#205493"/><path stroke="#205493" stroke-width="2" fill="#FFF" d="M1175.25 212.147l-70.266-50.51 70.652 67.53-.385-17.02M1175.636 229.168l17.02-.385 50.51-70.268-67.53 70.653M1108.106 299.82l50.51-70.268 17.02-.384-67.53 70.652"/><path stroke="#205493" stroke-width="2" fill="#FFF" d="M1246.288 296.697l-70.268-50.51-.384-17.02 70.652 67.53"/><path fill="#205493" d="M1175.636 229.168l-67.53 70.652 67.914-53.632-.384-17.02"/><path stroke="#1A1918" stroke-width=".25" d="M1175.636 229.168l-67.53 70.652 67.914-53.632-.384-17.02"/><path fill="#205493" d="M1192.656 228.783l53.632 67.914-70.652-67.53"/><path stroke="#1A1918" stroke-width=".25" d="M1192.656 228.783l53.632 67.914-70.652-67.53z"/><path fill="#205493" d="M1243.165 158.515l-67.914 53.632.386 17.02 67.53-70.652"/><path stroke="#1A1918" stroke-width=".25" d="M1243.165 158.515l-67.914 53.632.386 17.02z"/><path fill="#205493" d="M1104.984 161.638l53.63 67.914 17.022-.384-70.652-67.53"/><path stroke="#1A1918" stroke-width=".25" d="M1104.984 161.638l53.63 67.914 17.022-.384z"/><path stroke="#205493" stroke-width="2" fill="#FFF" d="M1189.905 214.238l-16.947-103.595 2.678 118.525 14.27-14.93"/><path stroke="#205493" stroke-width="2" fill="#FFF" d="M1175.636 229.168l14.93 14.27 103.594-16.95-118.524 2.68"/><path stroke="#205493" stroke-width="2" fill="#FFF" d="M1057.112 231.846l103.595-16.948 14.93 14.27-118.525 2.678"/><path stroke="#205493" stroke-width="2" fill="#FFF" d="M1178.315 347.692l-16.95-103.596 14.27-14.928 2.68 118.524"/><path fill="#205493" d="M1175.636 229.168l-118.524 2.678 104.254 12.25 14.27-14.928"/><path stroke="#1A1918" stroke-width=".25" d="M1175.636 229.168l-118.524 2.678 104.254 12.25 14.27-14.928"/><path fill="#205493" d="M1175.636 229.168l14.93 14.27-12.25 104.254-2.68-118.524"/><path stroke="#205493" stroke-width=".25" d="M1175.636 229.168l14.93 14.27-12.25 104.254z"/><path fill="#205493" d="M1294.16 226.49l-104.255-12.252-14.27 14.93 118.525-2.68"/><path stroke="#1A1918" stroke-width=".25" d="M1294.16 226.49l-104.255-12.252-14.27 14.93z"/><path fill="#205493" d="M1172.958 110.643l-12.25 104.255 14.928 14.27-2.678-118.525"/><path stroke="#1A1918" stroke-width=".25" d="M1172.958 110.643l-12.25 104.255 14.928 14.27z"/></g></svg>
