<?xml version="1.0" encoding="UTF-8" standalone="no"?>
<!-- Created with Inkscape (http://www.inkscape.org/) -->

<svg
   xmlns:dc="http://purl.org/dc/elements/1.1/"
   xmlns:cc="http://creativecommons.org/ns#"
   xmlns:rdf="http://www.w3.org/1999/02/22-rdf-syntax-ns#"
   xmlns:svg="http://www.w3.org/2000/svg"
   xmlns="http://www.w3.org/2000/svg"
   xmlns:sodipodi="http://sodipodi.sourceforge.net/DTD/sodipodi-0.dtd"
   xmlns:inkscape="http://www.inkscape.org/namespaces/inkscape"
   width="744.09448819"
   height="1052.3622047"
   id="svg23495"
   version="1.1"
   inkscape:version="0.47 r22583"
   sodipodi:docname="logo_cidadania.png">
  <defs
     id="defs23497">
    <inkscape:perspective
       sodipodi:type="inkscape:persp3d"
       inkscape:vp_x="0 : 526.18109 : 1"
       inkscape:vp_y="0 : 1000 : 0"
       inkscape:vp_z="744.09448 : 526.18109 : 1"
       inkscape:persp3d-origin="372.04724 : 350.78739 : 1"
       id="perspective23503" />
    <inkscape:perspective
       id="perspective23406"
       inkscape:persp3d-origin="0.5 : 0.33333333 : 1"
       inkscape:vp_z="1 : 0.5 : 1"
       inkscape:vp_y="0 : 1000 : 0"
       inkscape:vp_x="0 : 0.5 : 1"
       sodipodi:type="inkscape:persp3d" />
  </defs>
  <sodipodi:namedview
     id="base"
     pagecolor="#ffffff"
     bordercolor="#666666"
     borderopacity="1.0"
     inkscape:pageopacity="0.0"
     inkscape:pageshadow="2"
     inkscape:zoom="0.35"
     inkscape:cx="375"
     inkscape:cy="520"
     inkscape:document-units="px"
     inkscape:current-layer="layer1"
     showgrid="false"
     inkscape:window-width="1024"
     inkscape:window-height="749"
     inkscape:window-x="-2"
     inkscape:window-y="0"
     inkscape:window-maximized="1" />
  <metadata
     id="metadata23500">
    <rdf:RDF>
      <cc:Work
         rdf:about="">
        <dc:format>image/svg+xml</dc:format>
        <dc:type
           rdf:resource="http://purl.org/dc/dcmitype/StillImage" />
        <dc:title></dc:title>
      </cc:Work>
    </rdf:RDF>
  </metadata>
  <g
     inkscape:label="Layer 1"
     inkscape:groupmode="layer"
     id="layer1">
    <g
       transform="matrix(5.8026456,0,0,5.8026456,-3339.3245,-1011.9506)"
       id="g11212">
      <g
         id="g11214">
        <g
           id="g11216">
          <circle
             d="m 638.94003,263.582 c 0,3.6854 -2.98761,6.673 -6.673,6.673 -3.6854,0 -6.673,-2.9876 -6.673,-6.673 0,-3.6854 2.9876,-6.673 6.673,-6.673 3.68539,0 6.673,2.9876 6.673,6.673 z"
             cx="632.26703"
             cy="263.582"
             r="6.6729999"
             id="circle11218"
             sodipodi:cx="632.26703"
             sodipodi:cy="263.582"
             sodipodi:rx="6.6729999"
             sodipodi:ry="6.6729999"
             style="fill:#1996a6" />
          <circle
             d="m 632.61698,261.797 c 0,1.18023 -0.95677,2.137 -2.137,2.137 -1.18023,0 -2.137,-0.95677 -2.137,-2.137 0,-1.18024 0.95677,-2.137 2.137,-2.137 1.18023,0 2.137,0.95676 2.137,2.137 z"
             cx="630.47998"
             cy="261.797"
             r="2.1370001"
             id="circle11220"
             sodipodi:cx="630.47998"
             sodipodi:cy="261.797"
             sodipodi:rx="2.1370001"
             sodipodi:ry="2.1370001"
             style="fill:#ffffff" />
        </g>
        <rect
           x="631.09601"
           y="250.58701"
           width="2.342"
           height="7.493"
           id="rect11222"
           style="fill:#1996a6" />
        <rect
           x="623.086"
           y="255.211"
           transform="matrix(0.4998,-0.8661,0.8661,0.4998,87.9498,670.2126)"
           width="2.3410001"
           height="7.494"
           id="rect11224"
           style="fill:#1996a6" />
        <rect
           x="623.086"
           y="264.461"
           transform="matrix(-0.4996,-0.8662,0.8662,-0.4996,703.8298,942.9654)"
           width="2.342"
           height="7.4920001"
           id="rect11226"
           style="fill:#1996a6" />
        <rect
           x="631.09601"
           y="269.08401"
           width="2.342"
           height="7.493"
           id="rect11228"
           style="fill:#1996a6" />
        <rect
           x="639.104"
           y="264.461"
           transform="matrix(-0.5003,0.8659,-0.8659,-0.5003,1192.8147,-152.0167)"
           width="2.3429999"
           height="7.4920001"
           id="rect11230"
           style="fill:#1996a6" />
        <rect
           x="639.10602"
           y="255.21001"
           transform="matrix(0.5004,0.8658,-0.8658,0.5004,544.051,-424.9676)"
           width="2.342"
           height="7.494"
           id="rect11232"
           style="fill:#1996a6" />
        <g
           id="g11234">
          <circle
             d="m 636.12899,248.509 c 0,2.13348 -1.72952,3.863 -3.863,3.863 -2.13347,0 -3.863,-1.72952 -3.863,-3.863 0,-2.13347 1.72953,-3.863 3.863,-3.863 2.13348,0 3.863,1.72953 3.863,3.863 z"
             cx="632.26599"
             cy="248.509"
             r="3.8629999"
             id="circle11236"
             sodipodi:cx="632.26599"
             sodipodi:cy="248.509"
             sodipodi:rx="3.8629999"
             sodipodi:ry="3.8629999"
             style="fill:#1996a6" />
          <circle
             d="m 632.46799,247.47501 c 0,0.68262 -0.55337,1.236 -1.236,1.236 -0.68262,0 -1.236,-0.55338 -1.236,-1.236 0,-0.68263 0.55338,-1.236 1.236,-1.236 0.68263,0 1.236,0.55337 1.236,1.236 z"
             cx="631.23199"
             cy="247.47501"
             r="1.2359999"
             id="circle11238"
             sodipodi:cx="631.23199"
             sodipodi:cy="247.47501"
             sodipodi:rx="1.2359999"
             sodipodi:ry="1.2359999"
             style="fill:#ffffff" />
        </g>
        <g
           id="g11240">
          <circle
             d="m 623.074,256.04501 c 0,2.13348 -1.72953,3.863 -3.863,3.863 -2.13348,0 -3.863,-1.72952 -3.863,-3.863 0,-2.13347 1.72952,-3.863 3.863,-3.863 2.13347,0 3.863,1.72953 3.863,3.863 z"
             cx="619.211"
             cy="256.04501"
             r="3.8629999"
             id="circle11242"
             sodipodi:cx="619.211"
             sodipodi:cy="256.04501"
             sodipodi:rx="3.8629999"
             sodipodi:ry="3.8629999"
             style="fill:#1996a6" />
          <circle
             d="m 619.41602,255.01199 c 0,0.68318 -0.55383,1.237 -1.237,1.237 -0.68318,0 -1.237,-0.55382 -1.237,-1.237 0,-0.68317 0.55382,-1.237 1.237,-1.237 0.68317,0 1.237,0.55383 1.237,1.237 z"
             cx="618.17902"
             cy="255.01199"
             r="1.237"
             id="circle11244"
             sodipodi:cx="618.17902"
             sodipodi:cy="255.01199"
             sodipodi:rx="1.237"
             sodipodi:ry="1.237"
             style="fill:#ffffff" />
        </g>
        <g
           id="g11246">
          <circle
             d="m 623.07598,271.11899 c 0,2.13403 -1.72998,3.864 -3.864,3.864 -2.13403,0 -3.864,-1.72997 -3.864,-3.864 0,-2.13403 1.72997,-3.864 3.864,-3.864 2.13402,0 3.864,1.72997 3.864,3.864 z"
             cx="619.21198"
             cy="271.11899"
             r="3.8640001"
             id="circle11248"
             sodipodi:cx="619.21198"
             sodipodi:cy="271.11899"
             sodipodi:rx="3.8640001"
             sodipodi:ry="3.8640001"
             style="fill:#1996a6" />
          <circle
             d="m 619.41602,270.08499 c 0,0.68318 -0.55383,1.237 -1.237,1.237 -0.68318,0 -1.237,-0.55382 -1.237,-1.237 0,-0.68317 0.55382,-1.237 1.237,-1.237 0.68317,0 1.237,0.55383 1.237,1.237 z"
             cx="618.17902"
             cy="270.08499"
             r="1.237"
             id="circle11250"
             sodipodi:cx="618.17902"
             sodipodi:cy="270.08499"
             sodipodi:rx="1.237"
             sodipodi:ry="1.237"
             style="fill:#ffffff" />
        </g>
        <g
           id="g11252">
          <circle
             d="m 636.12899,278.65601 c 0,2.13347 -1.72952,3.863 -3.863,3.863 -2.13347,0 -3.863,-1.72953 -3.863,-3.863 0,-2.13348 1.72953,-3.863 3.863,-3.863 2.13348,0 3.863,1.72952 3.863,3.863 z"
             cx="632.26599"
             cy="278.65601"
             r="3.8629999"
             id="circle11254"
             sodipodi:cx="632.26599"
             sodipodi:cy="278.65601"
             sodipodi:rx="3.8629999"
             sodipodi:ry="3.8629999"
             style="fill:#1996a6" />
          <circle
             d="m 632.46799,277.62201 c 0,0.68262 -0.55337,1.236 -1.236,1.236 -0.68262,0 -1.236,-0.55338 -1.236,-1.236 0,-0.68262 0.55338,-1.236 1.236,-1.236 0.68263,0 1.236,0.55338 1.236,1.236 z"
             cx="631.23199"
             cy="277.62201"
             r="1.2359999"
             id="circle11256"
             sodipodi:cx="631.23199"
             sodipodi:cy="277.62201"
             sodipodi:rx="1.2359999"
             sodipodi:ry="1.2359999"
             style="fill:#ffffff" />
        </g>
        <g
           id="g11258">
          <circle
             d="m 649.18301,271.11899 c 0,2.13347 -1.72953,3.863 -3.863,3.863 -2.13348,0 -3.863,-1.72953 -3.863,-3.863 0,-2.13348 1.72952,-3.863 3.863,-3.863 2.13347,0 3.863,1.72952 3.863,3.863 z"
             cx="645.32001"
             cy="271.11899"
             r="3.8629999"
             id="circle11260"
             sodipodi:cx="645.32001"
             sodipodi:cy="271.11899"
             sodipodi:rx="3.8629999"
             sodipodi:ry="3.8629999"
             style="fill:#1996a6" />
          <circle
             d="m 645.52301,270.086 c 0,0.68317 -0.55382,1.237 -1.237,1.237 -0.68318,0 -1.237,-0.55383 -1.237,-1.237 0,-0.68318 0.55382,-1.237 1.237,-1.237 0.68318,0 1.237,0.55382 1.237,1.237 z"
             cx="644.28601"
             cy="270.086"
             r="1.237"
             id="circle11262"
             sodipodi:cx="644.28601"
             sodipodi:cy="270.086"
             sodipodi:rx="1.237"
             sodipodi:ry="1.237"
             style="fill:#ffffff" />
        </g>
        <g
           id="g11264">
          <circle
             d="m 649.18301,256.04501 c 0,2.13348 -1.72953,3.863 -3.863,3.863 -2.13348,0 -3.863,-1.72952 -3.863,-3.863 0,-2.13347 1.72952,-3.863 3.863,-3.863 2.13347,0 3.863,1.72953 3.863,3.863 z"
             cx="645.32001"
             cy="256.04501"
             r="3.8629999"
             id="circle11266"
             sodipodi:cx="645.32001"
             sodipodi:cy="256.04501"
             sodipodi:rx="3.8629999"
             sodipodi:ry="3.8629999"
             style="fill:#1996a6" />
          <circle
             d="m 645.52301,255.01199 c 0,0.68318 -0.55382,1.237 -1.237,1.237 -0.68318,0 -1.237,-0.55382 -1.237,-1.237 0,-0.68317 0.55382,-1.237 1.237,-1.237 0.68318,0 1.237,0.55383 1.237,1.237 z"
             cx="644.28601"
             cy="255.01199"
             r="1.237"
             id="circle11268"
             sodipodi:cx="644.28601"
             sodipodi:cy="255.01199"
             sodipodi:rx="1.237"
             sodipodi:ry="1.237"
             style="fill:#ffffff" />
        </g>
      </g>
      <g
         id="g11270">
        <g
           id="g11272">
          <circle
             d="m 612.82998,248.508 c 0,3.68539 -2.9876,6.673 -6.673,6.673 -3.68539,0 -6.673,-2.98761 -6.673,-6.673 0,-3.6854 2.98761,-6.673 6.673,-6.673 3.6854,0 6.673,2.9876 6.673,6.673 z"
             cx="606.15698"
             cy="248.508"
             r="6.6729999"
             id="circle11274"
             sodipodi:cx="606.15698"
             sodipodi:cy="248.508"
             sodipodi:rx="6.6729999"
             sodipodi:ry="6.6729999"
             style="fill:#1996a6" />
          <circle
             d="m 606.50999,246.72301 c 0,1.18023 -0.95677,2.137 -2.137,2.137 -1.18024,0 -2.137,-0.95677 -2.137,-2.137 0,-1.18024 0.95676,-2.137 2.137,-2.137 1.18023,0 2.137,0.95676 2.137,2.137 z"
             cx="604.37299"
             cy="246.72301"
             r="2.1370001"
             id="circle11276"
             sodipodi:cx="604.37299"
             sodipodi:cy="246.72301"
             sodipodi:rx="2.1370001"
             sodipodi:ry="2.1370001"
             style="fill:#ffffff" />
        </g>
        <rect
           x="604.98602"
           y="235.513"
           width="2.342"
           height="7.493"
           id="rect11278"
           style="fill:#1996a6" />
        <rect
           x="596.97803"
           y="240.138"
           transform="matrix(0.5004,-0.8658,0.8658,0.5004,87.6615,639.6918)"
           width="2.342"
           height="7.4920001"
           id="rect11280"
           style="fill:#1996a6" />
        <rect
           x="596.97601"
           y="249.38499"
           transform="matrix(-0.5003,-0.8659,0.8659,-0.5003,678.1984,897.6851)"
           width="2.3429999"
           height="7.494"
           id="rect11282"
           style="fill:#1996a6" />
        <rect
           x="604.98602"
           y="254.011"
           width="2.342"
           height="7.4920001"
           id="rect11284"
           style="fill:#1996a6" />
        <rect
           x="612.99597"
           y="249.38699"
           transform="matrix(-0.4996,0.8662,-0.8662,-0.4996,1140.3005,-152.4048)"
           width="2.342"
           height="7.493"
           id="rect11286"
           style="fill:#1996a6" />
        <rect
           x="612.99701"
           y="240.138"
           transform="matrix(0.4998,0.8661,-0.8661,0.4998,518.4299,-409.9623)"
           width="2.3410001"
           height="7.4920001"
           id="rect11288"
           style="fill:#1996a6" />
        <g
           id="g11290">
          <circle
             d="m 610.02102,233.435 c 0,2.13347 -1.72952,3.863 -3.863,3.863 -2.13348,0 -3.863,-1.72953 -3.863,-3.863 0,-2.13348 1.72952,-3.863 3.863,-3.863 2.13348,0 3.863,1.72952 3.863,3.863 z"
             cx="606.15802"
             cy="233.435"
             r="3.8629999"
             id="circle11292"
             sodipodi:cx="606.15802"
             sodipodi:cy="233.435"
             sodipodi:rx="3.8629999"
             sodipodi:ry="3.8629999"
             style="fill:#1996a6" />
          <circle
             d="m 606.36102,232.39999 c 0,0.68318 -0.55382,1.237 -1.237,1.237 -0.68317,0 -1.237,-0.55382 -1.237,-1.237 0,-0.68317 0.55383,-1.237 1.237,-1.237 0.68318,0 1.237,0.55383 1.237,1.237 z"
             cx="605.12402"
             cy="232.39999"
             r="1.237"
             id="circle11294"
             sodipodi:cx="605.12402"
             sodipodi:cy="232.39999"
             sodipodi:rx="1.237"
             sodipodi:ry="1.237"
             style="fill:#ffffff" />
        </g>
        <g
           id="g11296">
          <circle
             d="m 596.967,240.97099 c 0,2.13348 -1.72952,3.863 -3.863,3.863 -2.13347,0 -3.863,-1.72952 -3.863,-3.863 0,-2.13347 1.72953,-3.863 3.863,-3.863 2.13348,0 3.863,1.72953 3.863,3.863 z"
             cx="593.104"
             cy="240.97099"
             r="3.8629999"
             id="circle11298"
             sodipodi:cx="593.104"
             sodipodi:cy="240.97099"
             sodipodi:rx="3.8629999"
             sodipodi:ry="3.8629999"
             style="fill:#1996a6" />
          <circle
             d="m 593.30597,239.938 c 0,0.68318 -0.55382,1.237 -1.237,1.237 -0.68318,0 -1.237,-0.55382 -1.237,-1.237 0,-0.68317 0.55382,-1.237 1.237,-1.237 0.68318,0 1.237,0.55383 1.237,1.237 z"
             cx="592.06897"
             cy="239.938"
             r="1.237"
             id="circle11300"
             sodipodi:cx="592.06897"
             sodipodi:cy="239.938"
             sodipodi:rx="1.237"
             sodipodi:ry="1.237"
             style="fill:#ffffff" />
        </g>
        <g
           id="g11302">
          <circle
             d="m 596.967,256.04501 c 0,2.13348 -1.72952,3.863 -3.863,3.863 -2.13347,0 -3.863,-1.72952 -3.863,-3.863 0,-2.13347 1.72953,-3.863 3.863,-3.863 2.13348,0 3.863,1.72953 3.863,3.863 z"
             cx="593.104"
             cy="256.04501"
             r="3.8629999"
             id="circle11304"
             sodipodi:cx="593.104"
             sodipodi:cy="256.04501"
             sodipodi:rx="3.8629999"
             sodipodi:ry="3.8629999"
             style="fill:#1996a6" />
          <circle
             d="m 593.30597,255.01199 c 0,0.68318 -0.55382,1.237 -1.237,1.237 -0.68318,0 -1.237,-0.55382 -1.237,-1.237 0,-0.68317 0.55382,-1.237 1.237,-1.237 0.68318,0 1.237,0.55383 1.237,1.237 z"
             cx="592.06897"
             cy="255.01199"
             r="1.237"
             id="circle11306"
             sodipodi:cx="592.06897"
             sodipodi:cy="255.01199"
             sodipodi:rx="1.237"
             sodipodi:ry="1.237"
             style="fill:#ffffff" />
        </g>
        <g
           id="g11308">
          <circle
             d="m 610.02102,263.582 c 0,2.13348 -1.72952,3.863 -3.863,3.863 -2.13348,0 -3.863,-1.72952 -3.863,-3.863 0,-2.13348 1.72952,-3.863 3.863,-3.863 2.13348,0 3.863,1.72952 3.863,3.863 z"
             cx="606.15802"
             cy="263.582"
             r="3.8629999"
             id="circle11310"
             sodipodi:cx="606.15802"
             sodipodi:cy="263.582"
             sodipodi:rx="3.8629999"
             sodipodi:ry="3.8629999"
             style="fill:#1996a6" />
          <circle
             d="m 606.36102,262.548 c 0,0.68318 -0.55382,1.237 -1.237,1.237 -0.68317,0 -1.237,-0.55382 -1.237,-1.237 0,-0.68317 0.55383,-1.237 1.237,-1.237 0.68318,0 1.237,0.55383 1.237,1.237 z"
             cx="605.12402"
             cy="262.548"
             r="1.237"
             id="circle11312"
             sodipodi:cx="605.12402"
             sodipodi:cy="262.548"
             sodipodi:rx="1.237"
             sodipodi:ry="1.237"
             style="fill:#ffffff" />
        </g>
        <g
           id="g11314">
          <circle
             d="m 623.074,256.04501 c 0,2.13348 -1.72953,3.863 -3.863,3.863 -2.13348,0 -3.863,-1.72952 -3.863,-3.863 0,-2.13347 1.72952,-3.863 3.863,-3.863 2.13347,0 3.863,1.72953 3.863,3.863 z"
             cx="619.211"
             cy="256.04501"
             r="3.8629999"
             id="circle11316"
             sodipodi:cx="619.211"
             sodipodi:cy="256.04501"
             sodipodi:rx="3.8629999"
             sodipodi:ry="3.8629999"
             style="fill:#1996a6" />
          <circle
             d="m 619.41602,255.01199 c 0,0.68318 -0.55383,1.237 -1.237,1.237 -0.68318,0 -1.237,-0.55382 -1.237,-1.237 0,-0.68317 0.55382,-1.237 1.237,-1.237 0.68317,0 1.237,0.55383 1.237,1.237 z"
             cx="618.17902"
             cy="255.01199"
             r="1.237"
             id="circle11318"
             sodipodi:cx="618.17902"
             sodipodi:cy="255.01199"
             sodipodi:rx="1.237"
             sodipodi:ry="1.237"
             style="fill:#ffffff" />
        </g>
        <g
           id="g11320">
          <circle
             d="m 623.074,240.972 c 0,2.13348 -1.72953,3.863 -3.863,3.863 -2.13348,0 -3.863,-1.72952 -3.863,-3.863 0,-2.13348 1.72952,-3.863 3.863,-3.863 2.13347,0 3.863,1.72952 3.863,3.863 z"
             cx="619.211"
             cy="240.972"
             r="3.8629999"
             id="circle11322"
             sodipodi:cx="619.211"
             sodipodi:cy="240.972"
             sodipodi:rx="3.8629999"
             sodipodi:ry="3.8629999"
             style="fill:#1996a6" />
          <circle
             d="m 619.41602,239.938 c 0,0.68318 -0.55383,1.237 -1.237,1.237 -0.68318,0 -1.237,-0.55382 -1.237,-1.237 0,-0.68317 0.55382,-1.237 1.237,-1.237 0.68317,0 1.237,0.55383 1.237,1.237 z"
             cx="618.17902"
             cy="239.938"
             r="1.237"
             id="circle11324"
             sodipodi:cx="618.17902"
             sodipodi:cy="239.938"
             sodipodi:rx="1.237"
             sodipodi:ry="1.237"
             style="fill:#ffffff" />
        </g>
      </g>
      <g
         id="g11326">
        <g
           id="g11328">
          <circle
             d="m 665.04702,248.509 c 0,3.6854 -2.9876,6.673 -6.673,6.673 -3.68539,0 -6.673,-2.9876 -6.673,-6.673 0,-3.68539 2.98761,-6.673 6.673,-6.673 3.6854,0 6.673,2.98761 6.673,6.673 z"
             cx="658.37402"
             cy="248.509"
             r="6.6729999"
             id="circle11330"
             sodipodi:cx="658.37402"
             sodipodi:cy="248.509"
             sodipodi:rx="6.6729999"
             sodipodi:ry="6.6729999"
             style="fill:#1996a6" />
          <circle
             d="m 658.72499,246.724 c 0,1.17968 -0.95632,2.136 -2.136,2.136 -1.17968,0 -2.136,-0.95632 -2.136,-2.136 0,-1.17968 0.95632,-2.136 2.136,-2.136 1.17968,0 2.136,0.95632 2.136,2.136 z"
             cx="656.58899"
             cy="246.724"
             r="2.1359999"
             id="circle11332"
             sodipodi:cx="656.58899"
             sodipodi:cy="246.724"
             sodipodi:rx="2.1359999"
             sodipodi:ry="2.1359999"
             style="fill:#ffffff" />
        </g>
        <rect
           x="657.203"
           y="235.51401"
           width="2.342"
           height="7.4920001"
           id="rect11334"
           style="fill:#1996a6" />
        <rect
           x="649.19397"
           y="240.138"
           transform="matrix(0.5003,-0.8659,0.8659,0.5003,113.8387,685.0114)"
           width="2.3429999"
           height="7.493"
           id="rect11336"
           style="fill:#1996a6" />
        <rect
           x="649.19299"
           y="249.386"
           transform="matrix(-0.5004,-0.8658,0.8658,-0.5004,756.6808,942.8767)"
           width="2.342"
           height="7.494"
           id="rect11338"
           style="fill:#1996a6" />
        <rect
           x="657.203"
           y="254.011"
           width="2.342"
           height="7.493"
           id="rect11340"
           style="fill:#1996a6" />
        <rect
           x="665.21301"
           y="249.38699"
           transform="matrix(-0.4998,0.8661,-0.8661,-0.4998,1218.7008,-197.5216)"
           width="2.3410001"
           height="7.4920001"
           id="rect11342"
           style="fill:#1996a6" />
        <rect
           x="665.21301"
           y="240.138"
           transform="matrix(0.4996,0.8662,-0.8662,0.4996,544.6939,-455.2141)"
           width="2.342"
           height="7.4920001"
           id="rect11344"
           style="fill:#1996a6" />
        <g
           id="g11346">
          <circle
             d="m 662.238,233.435 c 0,2.13347 -1.72952,3.863 -3.863,3.863 -2.13348,0 -3.863,-1.72953 -3.863,-3.863 0,-2.13348 1.72952,-3.863 3.863,-3.863 2.13348,0 3.863,1.72952 3.863,3.863 z"
             cx="658.375"
             cy="233.435"
             r="3.8629999"
             id="circle11348"
             sodipodi:cx="658.375"
             sodipodi:cy="233.435"
             sodipodi:rx="3.8629999"
             sodipodi:ry="3.8629999"
             style="fill:#1996a6" />
          <circle
             d="m 658.578,232.401 c 0,0.68318 -0.55382,1.237 -1.237,1.237 -0.68317,0 -1.237,-0.55382 -1.237,-1.237 0,-0.68318 0.55383,-1.237 1.237,-1.237 0.68318,0 1.237,0.55382 1.237,1.237 z"
             cx="657.341"
             cy="232.401"
             r="1.237"
             id="circle11350"
             sodipodi:cx="657.341"
             sodipodi:cy="232.401"
             sodipodi:rx="1.237"
             sodipodi:ry="1.237"
             style="fill:#ffffff" />
        </g>
        <g
           id="g11352">
          <circle
             d="m 649.18301,240.972 c 0,2.13348 -1.72953,3.863 -3.863,3.863 -2.13348,0 -3.863,-1.72952 -3.863,-3.863 0,-2.13348 1.72952,-3.863 3.863,-3.863 2.13347,0 3.863,1.72952 3.863,3.863 z"
             cx="645.32001"
             cy="240.972"
             r="3.8629999"
             id="circle11354"
             sodipodi:cx="645.32001"
             sodipodi:cy="240.972"
             sodipodi:rx="3.8629999"
             sodipodi:ry="3.8629999"
             style="fill:#1996a6" />
          <circle
             d="m 645.52301,239.938 c 0,0.68318 -0.55382,1.237 -1.237,1.237 -0.68318,0 -1.237,-0.55382 -1.237,-1.237 0,-0.68317 0.55382,-1.237 1.237,-1.237 0.68318,0 1.237,0.55383 1.237,1.237 z"
             cx="644.28601"
             cy="239.938"
             r="1.237"
             id="circle11356"
             sodipodi:cx="644.28601"
             sodipodi:cy="239.938"
             sodipodi:rx="1.237"
             sodipodi:ry="1.237"
             style="fill:#ffffff" />
        </g>
        <g
           id="g11358">
          <circle
             d="m 649.18301,256.04501 c 0,2.13348 -1.72953,3.863 -3.863,3.863 -2.13348,0 -3.863,-1.72952 -3.863,-3.863 0,-2.13347 1.72952,-3.863 3.863,-3.863 2.13347,0 3.863,1.72953 3.863,3.863 z"
             cx="645.32001"
             cy="256.04501"
             r="3.8629999"
             id="circle11360"
             sodipodi:cx="645.32001"
             sodipodi:cy="256.04501"
             sodipodi:rx="3.8629999"
             sodipodi:ry="3.8629999"
             style="fill:#1996a6" />
          <circle
             d="m 645.52301,255.01199 c 0,0.68318 -0.55382,1.237 -1.237,1.237 -0.68318,0 -1.237,-0.55382 -1.237,-1.237 0,-0.68317 0.55382,-1.237 1.237,-1.237 0.68318,0 1.237,0.55383 1.237,1.237 z"
             cx="644.28601"
             cy="255.01199"
             r="1.237"
             id="circle11362"
             sodipodi:cx="644.28601"
             sodipodi:cy="255.01199"
             sodipodi:rx="1.237"
             sodipodi:ry="1.237"
             style="fill:#ffffff" />
        </g>
        <g
           id="g11364">
          <circle
             d="m 662.238,263.582 c 0,2.13348 -1.72952,3.863 -3.863,3.863 -2.13348,0 -3.863,-1.72952 -3.863,-3.863 0,-2.13348 1.72952,-3.863 3.863,-3.863 2.13348,0 3.863,1.72952 3.863,3.863 z"
             cx="658.375"
             cy="263.582"
             r="3.8629999"
             id="circle11366"
             sodipodi:cx="658.375"
             sodipodi:cy="263.582"
             sodipodi:rx="3.8629999"
             sodipodi:ry="3.8629999"
             style="fill:#1996a6" />
          <circle
             d="m 658.578,262.54901 c 0,0.68318 -0.55382,1.237 -1.237,1.237 -0.68317,0 -1.237,-0.55382 -1.237,-1.237 0,-0.68317 0.55383,-1.237 1.237,-1.237 0.68318,0 1.237,0.55383 1.237,1.237 z"
             cx="657.341"
             cy="262.54901"
             r="1.237"
             id="circle11368"
             sodipodi:cx="657.341"
             sodipodi:cy="262.54901"
             sodipodi:rx="1.237"
             sodipodi:ry="1.237"
             style="fill:#ffffff" />
        </g>
        <g
           id="g11370">
          <circle
             d="m 675.29098,256.04599 c 0,2.13348 -1.72953,3.863 -3.863,3.863 -2.13348,0 -3.863,-1.72952 -3.863,-3.863 0,-2.13348 1.72952,-3.863 3.863,-3.863 2.13347,0 3.863,1.72952 3.863,3.863 z"
             cx="671.42798"
             cy="256.04599"
             r="3.8629999"
             id="circle11372"
             sodipodi:cx="671.42798"
             sodipodi:cy="256.04599"
             sodipodi:rx="3.8629999"
             sodipodi:ry="3.8629999"
             style="fill:#1996a6" />
          <circle
             d="m 671.633,255.01199 c 0,0.68318 -0.55383,1.237 -1.237,1.237 -0.68318,0 -1.237,-0.55382 -1.237,-1.237 0,-0.68317 0.55382,-1.237 1.237,-1.237 0.68317,0 1.237,0.55383 1.237,1.237 z"
             cx="670.396"
             cy="255.01199"
             r="1.237"
             id="circle11374"
             sodipodi:cx="670.396"
             sodipodi:cy="255.01199"
             sodipodi:rx="1.237"
             sodipodi:ry="1.237"
             style="fill:#ffffff" />
        </g>
        <g
           id="g11376">
          <circle
             d="m 675.29098,240.972 c 0,2.13348 -1.72953,3.863 -3.863,3.863 -2.13348,0 -3.863,-1.72952 -3.863,-3.863 0,-2.13348 1.72952,-3.863 3.863,-3.863 2.13347,0 3.863,1.72952 3.863,3.863 z"
             cx="671.42798"
             cy="240.972"
             r="3.8629999"
             id="circle11378"
             sodipodi:cx="671.42798"
             sodipodi:cy="240.972"
             sodipodi:rx="3.8629999"
             sodipodi:ry="3.8629999"
             style="fill:#1996a6" />
          <circle
             d="m 671.633,239.938 c 0,0.68318 -0.55383,1.237 -1.237,1.237 -0.68318,0 -1.237,-0.55382 -1.237,-1.237 0,-0.68317 0.55382,-1.237 1.237,-1.237 0.68317,0 1.237,0.55383 1.237,1.237 z"
             cx="670.396"
             cy="239.938"
             r="1.237"
             id="circle11380"
             sodipodi:cx="670.396"
             sodipodi:cy="239.938"
             sodipodi:rx="1.237"
             sodipodi:ry="1.237"
             style="fill:#ffffff" />
        </g>
      </g>
    </g>
  </g>
</svg>
