<?xml version="1.0" encoding="UTF-8" standalone="no"?>
<!-- Created with Inkscape (http://www.inkscape.org/) -->

<svg
   xmlns:dc="http://purl.org/dc/elements/1.1/"
   xmlns:cc="http://creativecommons.org/ns#"
   xmlns:rdf="http://www.w3.org/1999/02/22-rdf-syntax-ns#"
   xmlns:svg="http://www.w3.org/2000/svg"
   xmlns="http://www.w3.org/2000/svg"
   xmlns:xlink="http://www.w3.org/1999/xlink"
   xmlns:sodipodi="http://sodipodi.sourceforge.net/DTD/sodipodi-0.dtd"
   xmlns:inkscape="http://www.inkscape.org/namespaces/inkscape"
   id="svg3004"
   version="1.1"
   inkscape:version="0.48.0 r9654"
   width="1052.5"
   height="743.75"
   xml:space="preserve"
   sodipodi:docname="logo.eps"><metadata
     id="metadata3010"><rdf:RDF><cc:Work
         rdf:about=""><dc:format>image/svg+xml</dc:format><dc:type
           rdf:resource="http://purl.org/dc/dcmitype/StillImage" /><dc:title></dc:title></cc:Work></rdf:RDF></metadata><defs
     id="defs3008"><linearGradient
       id="linearGradient4129"><stop
         style="stop-color:#00a800;stop-opacity:0;"
         offset="0"
         id="stop4131" /><stop
         style="stop-color:#006700;stop-opacity:1;"
         offset="1"
         id="stop4133" /></linearGradient><clipPath
       clipPathUnits="userSpaceOnUse"
       id="clipPath3020"><path
         d="M 0,1824.84 0,0 l 3447.48,0 0,1824.84 -3447.48,0 z"
         id="path3022"
         inkscape:connector-curvature="0" /></clipPath><clipPath
       clipPathUnits="userSpaceOnUse"
       id="clipPath3092"><path
         d="m 2911.32,907.02 -327.96,167.67 c -46.17,-10.35 -95.13,-16.02 -145.89,-16.02 -281.52,0 -509.67,171.54 -509.67,383.04 0,211.59 228.15,383.13 509.67,383.13 281.52,0 509.76,-171.54 509.76,-383.13 0,-140.4 -100.62,-263.07 -250.56,-329.76 l 214.65,-204.93"
         id="path3094"
         inkscape:connector-curvature="0" /></clipPath><linearGradient
       x1="0"
       y1="0"
       x2="1"
       y2="0"
       gradientUnits="userSpaceOnUse"
       gradientTransform="matrix(409.632,-4.79128,-4.79128,-409.632,-160.004,141.594)"
       spreadMethod="pad"
       id="linearGradient3096"><stop
         style="stop-opacity:1;stop-color:#efef2d"
         offset="0"
         id="stop3098" /><stop
         style="stop-opacity:1;stop-color:#efef2d"
         offset="0"
         id="stop3100" /><stop
         style="stop-opacity:1;stop-color:#f57c23"
         offset="0.109312"
         id="stop3102" /><stop
         style="stop-opacity:1;stop-color:#f57c23"
         offset="0.109312"
         id="stop3104" /><stop
         style="stop-opacity:1;stop-color:#ee2c27"
         offset="0.279352"
         id="stop3106" /><stop
         style="stop-opacity:1;stop-color:#8a2998"
         offset="0.441296"
         id="stop3108" /><stop
         style="stop-opacity:1;stop-color:#4275c3"
         offset="0.663968"
         id="stop3110" /><stop
         style="stop-opacity:1;stop-color:#6dc73a"
         offset="0.882591"
         id="stop3112" /><stop
         style="stop-opacity:1;stop-color:#2e6f43"
         offset="1"
         id="stop3114" /></linearGradient><clipPath
       clipPathUnits="userSpaceOnUse"
       id="clipPath3122"><path
         d="M 0,1824.84 0,0 l 3447.48,0 0,1824.84 -3447.48,0 z"
         id="path3124"
         inkscape:connector-curvature="0" /></clipPath><linearGradient
       inkscape:collect="always"
       xlink:href="#linearGradient4129"
       id="linearGradient4135"
       x1="1927.8"
       y1="1365.9301"
       x2="2947.23"
       y2="1365.9301"
       gradientUnits="userSpaceOnUse"
       spreadMethod="pad" /><linearGradient
       inkscape:collect="always"
       xlink:href="#linearGradient4129"
       id="linearGradient4139"
       gradientUnits="userSpaceOnUse"
       spreadMethod="pad"
       x1="1927.8"
       y1="1365.9301"
       x2="2947.23"
       y2="1365.9301" /><linearGradient
       inkscape:collect="always"
       xlink:href="#linearGradient4129"
       id="linearGradient4141"
       gradientUnits="userSpaceOnUse"
       spreadMethod="pad"
       x1="1927.8"
       y1="1365.9301"
       x2="2947.23"
       y2="1365.9301" /></defs><sodipodi:namedview
     pagecolor="#ffffff"
     bordercolor="#666666"
     borderopacity="1"
     objecttolerance="10"
     gridtolerance="10"
     guidetolerance="10"
     inkscape:pageopacity="0"
     inkscape:pageshadow="2"
     inkscape:window-width="1024"
     inkscape:window-height="749"
     id="namedview3006"
     showgrid="false"
     inkscape:zoom="0.51306413"
     inkscape:cx="411.81667"
     inkscape:cy="357.85447"
     inkscape:window-x="0"
     inkscape:window-y="0"
     inkscape:window-maximized="1"
     inkscape:current-layer="g3012" /><g
     id="g3012"
     inkscape:groupmode="layer"
     inkscape:label="ink_ext_XXXXXX"
     transform="matrix(1.25,0,0,-1.25,0,743.75)"><g
       id="g3016"
       transform="matrix(0.22211819,0,0,0.22211819,37.833018,114.68757)"><g
         clip-path="url(#clipPath3020)"
         id="g3018"><path
           inkscape:connector-curvature="0"
           id="path3024"
           style="fill:#231f20;fill-opacity:1;fill-rule:nonzero;stroke:none"
           d="m 4.61719,44.5195 0,160.3395 19.67971,0 0,-57.519 c 9.1875,10.64 20.7812,15.961 34.7812,15.961 8.6016,0 16.0821,-1.692 22.4258,-5.082 6.3477,-3.379 10.8906,-8.09 13.625,-14.071 2.7266,-5.976 4.0899,-14.636 4.0899,-26.019 l 0,-73.6095 -19.6797,0 0,73.6095 c 0,9.851 -2.1407,17.012 -6.3946,21.5 -4.2656,4.473 -10.3086,6.711 -18.1093,6.711 -5.836,0 -11.3204,-1.5 -16.4649,-4.531 -5.1328,-3.028 -8.8086,-7.129 -10.9805,-12.297 -2.1875,-5.184 -3.2929,-12.321 -3.2929,-21.453 l 0,-63.5395 -19.67971,0" /><path
           inkscape:connector-curvature="0"
           id="path3026"
           style="fill:#231f20;fill-opacity:1;fill-rule:nonzero;stroke:none"
           d="m 144.07,113.75 64.871,0 c -0.879,9.77 -3.359,17.102 -7.437,21.988 -6.277,7.582 -14.399,11.371 -24.391,11.371 -9.047,0 -16.66,-3.019 -22.812,-9.078 -6.153,-6.043 -9.574,-14.14 -10.231,-24.281 z m 64.645,-31.8281 20.347,-2.5 c -3.21,-11.9024 -9.16,-21.1211 -17.824,-27.6719 -8.679,-6.5703 -19.773,-9.8516 -33.265,-9.8516 -16.973,0 -30.45,5.2227 -40.411,15.7032 -9.941,10.4492 -14.925,25.1289 -14.925,44.0074 0,19.539 5.035,34.711 15.09,45.5 10.07,10.789 23.113,16.192 39.164,16.192 15.535,0 28.211,-5.289 38.058,-15.86 9.848,-10.57 14.77,-25.441 14.77,-44.632 0,-1.161 -0.031,-2.9106 -0.11,-5.2387 l -86.625,0 c 0.715,-12.7617 4.328,-22.5391 10.825,-29.3203 6.488,-6.7695 14.589,-10.1719 24.277,-10.1719 7.226,0 13.379,1.8907 18.496,5.6836 5.098,3.7891 9.145,9.8477 12.133,18.1602" /><path
           inkscape:connector-curvature="0"
           id="path3028"
           style="fill:#231f20;fill-opacity:1;fill-rule:nonzero;stroke:none"
           d="m 253.555,44.5195 0,116.1605 17.722,0 0,-17.61 c 4.508,8.231 8.684,13.66 12.516,16.301 3.824,2.617 8.043,3.93 12.633,3.93 6.633,0 13.379,-2.11 20.234,-6.352 l -6.777,-18.269 c -4.809,2.851 -9.625,4.269 -14.434,4.269 -4.316,0 -8.168,-1.289 -11.605,-3.879 -3.418,-2.59 -5.864,-6.172 -7.321,-10.781 -2.191,-6.988 -3.277,-14.66 -3.277,-22.969 l 0,-60.8005 -19.691,0" /><path
           inkscape:connector-curvature="0"
           id="path3030"
           style="fill:#231f20;fill-opacity:1;fill-rule:nonzero;stroke:none"
           d="m 328.152,44.5195 0,116.1605 17.731,0 0,-17.61 c 4.508,8.231 8.679,13.66 12.515,16.301 3.821,2.617 8.043,3.93 12.625,3.93 6.637,0 13.379,-2.11 20.243,-6.352 l -6.778,-18.269 c -4.816,2.851 -9.625,4.269 -14.437,4.269 -4.313,0 -8.164,-1.289 -11.606,-3.879 -3.422,-2.59 -5.867,-6.172 -7.324,-10.781 -2.183,-6.988 -3.273,-14.66 -3.273,-22.969 l 0,-60.8005 -19.696,0" /><path
           inkscape:connector-curvature="0"
           id="path3032"
           style="fill:#231f20;fill-opacity:1;fill-rule:nonzero;stroke:none"
           d="m 477.117,102.809 c -7.14,-2.9106 -17.871,-5.3988 -32.16,-7.4301 -8.086,-1.1601 -13.809,-2.4805 -17.168,-3.9375 -3.355,-1.4609 -5.949,-3.5898 -7.769,-6.4023 -1.821,-2.8086 -2.735,-5.9297 -2.735,-9.3477 0,-5.2422 1.985,-9.6211 5.961,-13.1211 3.984,-3.5117 9.785,-5.2422 17.442,-5.2422 7.593,0 14.339,1.6407 20.242,4.9727 5.91,3.3086 10.242,7.8476 13.008,13.6094 2.124,4.4492 3.179,11.0117 3.179,19.6796 l 0,7.2192 z m 1.649,-43.9692 c -7.305,-6.1796 -14.325,-10.5703 -21.071,-13.1289 -6.742,-2.539 -13.968,-3.8125 -21.703,-3.8125 -12.762,0 -22.574,3.1133 -29.414,9.3516 -6.859,6.2305 -10.293,14.1914 -10.293,23.8984 0,5.6914 1.293,10.8907 3.883,15.5821 2.586,4.6992 5.98,8.4687 10.184,11.3205 4.183,2.84 8.902,5 14.16,6.461 3.851,1.019 9.687,2 17.492,2.957 15.902,1.883 27.601,4.152 35.113,6.769 0.067,2.711 0.113,4.422 0.113,5.133 0,8.027 -1.871,13.68 -5.582,16.957 -5.031,4.453 -12.511,6.672 -22.425,6.672 -9.25,0 -16.094,-1.621 -20.508,-4.859 -4.406,-3.243 -7.668,-8.981 -9.777,-17.243 l -19.266,2.633 c 1.758,8.239 4.637,14.891 8.648,19.957 4.016,5.071 9.801,8.981 17.395,11.703 7.57,2.731 16.363,4.11 26.355,4.11 9.91,0 17.969,-1.16 24.168,-3.492 6.203,-2.34 10.758,-5.278 13.668,-8.809 2.926,-3.539 4.973,-8.012 6.141,-13.398 0.652,-3.364 0.973,-9.422 0.973,-18.161 l 0,-26.2496 c 0,-18.3008 0.418,-29.8711 1.261,-34.7305 0.836,-4.8515 2.496,-9.4921 4.973,-13.9414 l -20.559,0 c -2.047,4.0703 -3.355,8.8516 -3.929,14.3203" /><path
           inkscape:connector-curvature="0"
           id="path3034"
           style="fill:#231f20;fill-opacity:1;fill-rule:nonzero;stroke:none"
           d="m 527.551,44.5195 0,116.1605 17.601,0 0,-16.301 c 3.641,5.691 8.5,10.262 14.543,13.73 6.063,3.45 12.95,5.192 20.688,5.192 8.597,0 15.648,-1.789 21.164,-5.352 5.5,-3.578 9.383,-8.57 11.637,-15 9.187,13.571 21.148,20.352 35.882,20.352 11.508,0 20.383,-3.192 26.571,-9.571 6.199,-6.378 9.304,-16.21 9.304,-29.48 l 0,-79.7305 -19.586,0 0,73.1795 c 0,7.871 -0.636,13.539 -1.917,17.012 -1.258,3.449 -3.579,6.25 -6.934,8.359 -3.359,2.11 -7.289,3.16 -11.816,3.16 -8.165,0 -14.946,-2.71 -20.348,-8.128 -5.387,-5.442 -8.09,-14.133 -8.09,-26.102 l 0,-67.4805 -19.691,0 0,75.4605 c 0,8.758 -1.598,15.309 -4.813,19.7 -3.211,4.371 -8.453,6.55 -15.746,6.55 -5.547,0 -10.656,-1.449 -15.359,-4.359 -4.719,-2.922 -8.121,-7.191 -10.231,-12.812 -2.125,-5.61 -3.183,-13.7 -3.183,-24.27 l 0,-60.2695 -19.676,0" /><path
           inkscape:connector-curvature="0"
           id="path3036"
           style="fill:#231f20;fill-opacity:1;fill-rule:nonzero;stroke:none"
           d="m 714.258,44.5195 0,116.1605 19.68,0 0,-116.1605 -19.68,0 z m 0,137.7105 0,22.629 19.68,0 0,-22.629 -19.68,0" /><path
           inkscape:connector-curvature="0"
           id="path3038"
           style="fill:#231f20;fill-opacity:1;fill-rule:nonzero;stroke:none"
           d="m 778.77,113.75 64.867,0 c -0.879,9.77 -3.356,17.102 -7.43,21.988 -6.285,7.582 -14.406,11.371 -24.395,11.371 -9.046,0 -16.656,-3.019 -22.808,-9.078 -6.156,-6.043 -9.574,-14.14 -10.234,-24.281 z m 64.644,-31.8281 20.352,-2.5 C 860.551,67.5195 854.605,58.3008 845.941,51.75 c -8.679,-6.5703 -19.773,-9.8516 -33.265,-9.8516 -16.977,0 -30.449,5.2227 -40.41,15.7032 -9.942,10.4492 -14.93,25.1289 -14.93,44.0074 0,19.539 5.035,34.711 15.09,45.5 10.07,10.789 23.117,16.192 39.16,16.192 15.539,0 28.219,-5.289 38.062,-15.86 9.848,-10.57 14.77,-25.441 14.77,-44.632 0,-1.161 -0.031,-2.9106 -0.109,-5.2387 l -86.621,0 c 0.714,-12.7617 4.328,-22.5391 10.82,-29.3203 6.488,-6.7695 14.594,-10.1719 24.281,-10.1719 7.227,0 13.379,1.8907 18.496,5.6836 5.098,3.7891 9.141,9.8477 12.129,18.1602" /><path
           inkscape:connector-curvature="0"
           id="path3040"
           style="fill:#231f20;fill-opacity:1;fill-rule:nonzero;stroke:none"
           d="m 888.492,44.5195 0,116.1605 17.715,0 0,-16.532 c 8.535,12.774 20.859,19.153 36.973,19.153 7,0 13.425,-1.262 19.304,-3.77 5.871,-2.531 10.266,-5.82 13.176,-9.89 2.926,-4.09 4.953,-8.942 6.121,-14.551 0.735,-3.66 1.106,-10.039 1.106,-19.149 l 0,-71.4215 -19.699,0 0,70.6605 c 0,8.011 -0.766,14.011 -2.297,17.992 -1.52,3.969 -4.243,7.137 -8.137,9.519 -3.902,2.36 -8.492,3.539 -13.731,3.539 -8.394,0 -15.621,-2.652 -21.711,-7.98 -6.089,-5.32 -9.144,-15.422 -9.144,-30.289 l 0,-63.4415 -19.676,0" /><path
           inkscape:connector-curvature="0"
           id="path3042"
           style="fill:#231f20;fill-opacity:1;fill-rule:nonzero;stroke:none"
           d="m 1056.04,62.1289 2.85,-17.3789 c -5.55,-1.1719 -10.5,-1.7695 -14.88,-1.7695 -7.14,0 -12.69,1.1406 -16.62,3.3984 -3.94,2.2617 -6.72,5.2305 -8.32,8.9102 -1.59,3.6797 -2.4,11.4297 -2.4,23.25 l 0,66.8319 -14.44,0 0,15.309 14.44,0 0,28.75 19.57,11.82 0,-40.57 19.8,0 0,-15.309 -19.8,0 0,-67.9218 c 0,-5.6289 0.35,-9.2383 1.04,-10.8398 0.7,-1.5977 1.82,-2.8789 3.39,-3.8203 1.57,-0.961 3.82,-1.418 6.73,-1.418 2.19,0 5.07,0.25 8.64,0.7578" /><path
           inkscape:connector-curvature="0"
           id="path3044"
           style="fill:#231f20;fill-opacity:1;fill-rule:nonzero;stroke:none"
           d="m 1149.46,102.809 c -7.14,-2.9106 -17.87,-5.3988 -32.16,-7.4301 -8.09,-1.1601 -13.81,-2.4805 -17.17,-3.9375 -3.35,-1.4609 -5.94,-3.5898 -7.77,-6.4023 -1.82,-2.8086 -2.73,-5.9297 -2.73,-9.3477 0,-5.2422 1.98,-9.6211 5.97,-13.1211 3.98,-3.5117 9.78,-5.2422 17.43,-5.2422 7.6,0 14.34,1.6407 20.24,4.9727 5.91,3.3086 10.25,7.8476 13.01,13.6094 2.13,4.4492 3.18,11.0117 3.18,19.6796 l 0,7.2192 z m 1.65,-43.9692 c -7.31,-6.1796 -14.32,-10.5703 -21.07,-13.1289 -6.74,-2.539 -13.97,-3.8125 -21.71,-3.8125 -12.75,0 -22.57,3.1133 -29.41,9.3516 -6.85,6.2305 -10.29,14.1914 -10.29,23.8984 0,5.6914 1.29,10.8907 3.88,15.5821 2.59,4.6992 5.98,8.4687 10.19,11.3205 4.18,2.84 8.9,5 14.16,6.461 3.85,1.019 9.68,2 17.49,2.957 15.9,1.883 27.6,4.152 35.11,6.769 0.07,2.711 0.12,4.422 0.12,5.133 0,8.027 -1.87,13.68 -5.59,16.957 -5.03,4.453 -12.51,6.672 -22.42,6.672 -9.26,0 -16.1,-1.621 -20.51,-4.859 -4.41,-3.243 -7.67,-8.981 -9.78,-17.243 l -19.26,2.633 c 1.75,8.239 4.63,14.891 8.64,19.957 4.02,5.071 9.8,8.981 17.4,11.703 7.57,2.731 16.36,4.11 26.35,4.11 9.92,0 17.97,-1.16 24.17,-3.492 6.21,-2.34 10.76,-5.278 13.67,-8.809 2.93,-3.539 4.97,-8.012 6.14,-13.398 0.65,-3.364 0.98,-9.422 0.98,-18.161 l 0,-26.2496 c 0,-18.3008 0.41,-29.8711 1.26,-34.7305 0.83,-4.8515 2.49,-9.4921 4.97,-13.9414 l -20.56,0 c -2.04,4.0703 -3.36,8.8516 -3.93,14.3203" /><path
           inkscape:connector-curvature="0"
           id="path3046"
           style="fill:#231f20;fill-opacity:1;fill-rule:nonzero;stroke:none"
           d="m 1279.93,101.93 c 0,-14.9417 3.02,-25.9808 9.08,-33.1292 6.06,-7.1524 13.38,-10.7227 21.98,-10.7227 8.76,0 16.24,3.7031 22.48,11.1016 6.23,7.3984 9.35,18.8711 9.35,34.4103 0,14.801 -3.04,25.871 -9.13,33.238 -6.09,7.371 -13.36,11.051 -21.82,11.051 -8.39,0 -15.81,-3.91 -22.25,-11.758 -6.46,-7.84 -9.69,-19.23 -9.69,-34.191 z M 1262.11,0 l 0,160.68 17.93,0 0,-15.102 c 4.22,5.922 9,10.344 14.33,13.301 5.32,2.961 11.78,4.422 19.36,4.422 9.92,0 18.67,-2.563 26.26,-7.653 7.57,-5.097 13.3,-12.308 17.17,-21.597 3.87,-9.301 5.78,-19.5 5.78,-30.582 0,-11.8909 -2.12,-22.5784 -6.39,-32.0901 -4.27,-9.5078 -10.46,-16.8203 -18.59,-21.8906 -8.14,-5.0664 -16.69,-7.5899 -25.66,-7.5899 -6.55,0 -12.45,1.3711 -17.66,4.1602 -5.21,2.7617 -9.49,6.2617 -12.85,10.4922 l 0,-56.5508 -19.68,0" /><path
           inkscape:connector-curvature="0"
           id="path3048"
           style="fill:#231f20;fill-opacity:1;fill-rule:nonzero;stroke:none"
           d="m 1460.85,102.809 c -7.14,-2.9106 -17.87,-5.3988 -32.16,-7.4301 -8.09,-1.1601 -13.81,-2.4805 -17.17,-3.9375 -3.36,-1.4609 -5.94,-3.5898 -7.77,-6.4023 -1.82,-2.8086 -2.73,-5.9297 -2.73,-9.3477 0,-5.2422 1.98,-9.6211 5.96,-13.1211 3.98,-3.5117 9.78,-5.2422 17.44,-5.2422 7.59,0 14.34,1.6407 20.24,4.9727 5.91,3.3086 10.24,7.8476 13.01,13.6094 2.12,4.4492 3.18,11.0117 3.18,19.6796 l 0,7.2192 z m 1.65,-43.9692 c -7.31,-6.1796 -14.33,-10.5703 -21.07,-13.1289 -6.75,-2.539 -13.97,-3.8125 -21.71,-3.8125 -12.75,0 -22.57,3.1133 -29.41,9.3516 -6.86,6.2305 -10.3,14.1914 -10.3,23.8984 0,5.6914 1.3,10.8907 3.89,15.5821 2.59,4.6992 5.98,8.4687 10.18,11.3205 4.19,2.84 8.9,5 14.16,6.461 3.85,1.019 9.69,2 17.49,2.957 15.91,1.883 27.61,4.152 35.12,6.769 0.06,2.711 0.11,4.422 0.11,5.133 0,8.027 -1.87,13.68 -5.57,16.957 -5.04,4.453 -12.52,6.672 -22.43,6.672 -9.26,0 -16.1,-1.621 -20.51,-4.859 -4.41,-3.243 -7.67,-8.981 -9.78,-17.243 l -19.27,2.633 c 1.76,8.239 4.64,14.891 8.65,19.957 4.01,5.071 9.8,8.981 17.39,11.703 7.58,2.731 16.37,4.11 26.36,4.11 9.91,0 17.97,-1.16 24.17,-3.492 6.2,-2.34 10.76,-5.278 13.67,-8.809 2.92,-3.539 4.97,-8.012 6.14,-13.398 0.65,-3.364 0.97,-9.422 0.97,-18.161 l 0,-26.2496 c 0,-18.3008 0.42,-29.8711 1.27,-34.7305 0.83,-4.8515 2.49,-9.4921 4.97,-13.9414 l -20.56,0 c -2.05,4.0703 -3.36,8.8516 -3.93,14.3203" /><path
           inkscape:connector-curvature="0"
           id="path3050"
           style="fill:#231f20;fill-opacity:1;fill-rule:nonzero;stroke:none"
           d="m 1511.04,44.5195 0,116.1605 17.73,0 0,-17.61 c 4.51,8.231 8.68,13.66 12.52,16.301 3.82,2.617 8.04,3.93 12.63,3.93 6.63,0 13.37,-2.11 20.23,-6.352 l -6.78,-18.269 c -4.81,2.851 -9.62,4.269 -14.43,4.269 -4.32,0 -8.17,-1.289 -11.6,-3.879 -3.42,-2.59 -5.87,-6.172 -7.33,-10.781 -2.18,-6.988 -3.27,-14.66 -3.27,-22.969 l 0,-60.8005 -19.7,0" /><path
           inkscape:connector-curvature="0"
           id="path3052"
           style="fill:#231f20;fill-opacity:1;fill-rule:nonzero;stroke:none"
           d="m 1660.02,102.809 c -7.14,-2.9106 -17.87,-5.3988 -32.16,-7.4301 -8.08,-1.1601 -13.81,-2.4805 -17.17,-3.9375 -3.35,-1.4609 -5.94,-3.5898 -7.77,-6.4023 -1.82,-2.8086 -2.73,-5.9297 -2.73,-9.3477 0,-5.2422 1.98,-9.6211 5.96,-13.1211 3.99,-3.5117 9.79,-5.2422 17.44,-5.2422 7.6,0 14.34,1.6407 20.24,4.9727 5.92,3.3086 10.25,7.8476 13.02,13.6094 2.12,4.4492 3.17,11.0117 3.17,19.6796 l 0,7.2192 z m 1.65,-43.9692 c -7.3,-6.1796 -14.32,-10.5703 -21.07,-13.1289 -6.74,-2.539 -13.97,-3.8125 -21.7,-3.8125 -12.76,0 -22.58,3.1133 -29.42,9.3516 -6.85,6.2305 -10.29,14.1914 -10.29,23.8984 0,5.6914 1.29,10.8907 3.88,15.5821 2.59,4.6992 5.98,8.4687 10.19,11.3205 4.18,2.84 8.9,5 14.16,6.461 3.85,1.019 9.68,2 17.49,2.957 15.9,1.883 27.6,4.152 35.11,6.769 0.07,2.711 0.12,4.422 0.12,5.133 0,8.027 -1.87,13.68 -5.58,16.957 -5.04,4.453 -12.52,6.672 -22.43,6.672 -9.25,0 -16.09,-1.621 -20.51,-4.859 -4.41,-3.243 -7.67,-8.981 -9.78,-17.243 l -19.26,2.633 c 1.76,8.239 4.63,14.891 8.65,19.957 4.01,5.071 9.8,8.981 17.39,11.703 7.57,2.731 16.37,4.11 26.36,4.11 9.91,0 17.96,-1.16 24.17,-3.492 6.2,-2.34 10.75,-5.278 13.66,-8.809 2.93,-3.539 4.97,-8.012 6.14,-13.398 0.65,-3.364 0.98,-9.422 0.98,-18.161 l 0,-26.2496 c 0,-18.3008 0.41,-29.8711 1.26,-34.7305 0.83,-4.8515 2.49,-9.4921 4.97,-13.9414 l -20.55,0 c -2.06,4.0703 -3.36,8.8516 -3.94,14.3203" /><path
           inkscape:connector-curvature="0"
           id="path3054"
           style="fill:#231f20;fill-opacity:1;fill-rule:nonzero;stroke:none"
           d="m 1772.24,44.5195 19.6914,0 0,160.34 -19.6914,0 0,-160.34 z" /><path
           inkscape:connector-curvature="0"
           id="path3056"
           style="fill:#231f20;fill-opacity:1;fill-rule:nonzero;stroke:none"
           d="m 1896.6,102.809 c -7.15,-2.9106 -17.87,-5.3988 -32.16,-7.4301 -8.09,-1.1601 -13.81,-2.4805 -17.16,-3.9375 -3.36,-1.4609 -5.95,-3.5898 -7.78,-6.4023 -1.81,-2.8086 -2.73,-5.9297 -2.73,-9.3477 0,-5.2422 1.98,-9.6211 5.96,-13.1211 3.98,-3.5117 9.79,-5.2422 17.45,-5.2422 7.58,0 14.33,1.6407 20.23,4.9727 5.92,3.3086 10.24,7.8476 13.01,13.6094 2.13,4.4492 3.18,11.0117 3.18,19.6796 l 0,7.2192 z m 1.65,-43.9692 c -7.3,-6.1796 -14.32,-10.5703 -21.07,-13.1289 -6.74,-2.539 -13.97,-3.8125 -21.71,-3.8125 -12.76,0 -22.57,3.1133 -29.41,9.3516 -6.86,6.2305 -10.3,14.1914 -10.3,23.8984 0,5.6914 1.3,10.8907 3.89,15.5821 2.59,4.6992 5.98,8.4687 10.18,11.3205 4.19,2.84 8.91,5 14.16,6.461 3.86,1.019 9.69,2 17.49,2.957 15.91,1.883 27.61,4.152 35.12,6.769 0.07,2.711 0.11,4.422 0.11,5.133 0,8.027 -1.87,13.68 -5.58,16.957 -5.03,4.453 -12.51,6.672 -22.42,6.672 -9.26,0 -16.1,-1.621 -20.51,-4.859 -4.41,-3.243 -7.67,-8.981 -9.78,-17.243 l -19.27,2.633 c 1.76,8.239 4.64,14.891 8.65,19.957 4.02,5.071 9.8,8.981 17.4,11.703 7.57,2.731 16.36,4.11 26.35,4.11 9.91,0 17.97,-1.16 24.17,-3.492 6.2,-2.34 10.76,-5.278 13.67,-8.809 2.92,-3.539 4.98,-8.012 6.14,-13.398 0.65,-3.364 0.97,-9.422 0.97,-18.161 l 0,-26.2496 c 0,-18.3008 0.42,-29.8711 1.26,-34.7305 0.83,-4.8515 2.5,-9.4921 4.97,-13.9414 l -20.55,0 c -2.04,4.0703 -3.35,8.8516 -3.93,14.3203" /><path
           inkscape:connector-curvature="0"
           id="path3058"
           style="fill:#231f20;fill-opacity:1;fill-rule:nonzero;stroke:none"
           d="m 2024.13,113.75 64.86,0 c -0.87,9.77 -3.35,17.102 -7.43,21.988 -6.28,7.582 -14.4,11.371 -24.39,11.371 -9.04,0 -16.65,-3.019 -22.8,-9.078 -6.17,-6.043 -9.58,-14.14 -10.24,-24.281 z m 64.64,-31.8281 20.35,-2.5 c -3.21,-11.9024 -9.16,-21.1211 -17.82,-27.6719 -8.68,-6.5703 -19.78,-9.8516 -33.26,-9.8516 -16.99,0 -30.45,5.2227 -40.41,15.7032 -9.94,10.4492 -14.93,25.1289 -14.93,44.0074 0,19.539 5.02,34.711 15.08,45.5 10.07,10.789 23.12,16.192 39.16,16.192 15.54,0 28.23,-5.289 38.07,-15.86 9.84,-10.57 14.77,-25.441 14.77,-44.632 0,-1.161 -0.03,-2.9106 -0.11,-5.2387 l -86.62,0 c 0.71,-12.7617 4.32,-22.5391 10.82,-29.3203 6.48,-6.7695 14.59,-10.1719 24.27,-10.1719 7.23,0 13.38,1.8907 18.5,5.6836 5.1,3.7891 9.14,9.8477 12.13,18.1602" /><path
           inkscape:connector-curvature="0"
           id="path3060"
           style="fill:#231f20;fill-opacity:1;fill-rule:nonzero;stroke:none"
           d="m 2126.19,92.6484 60.4883,0 0,19.793 -60.4883,0 0,-19.793 z" /><path
           inkscape:connector-curvature="0"
           id="path3062"
           style="fill:#231f20;fill-opacity:1;fill-rule:nonzero;stroke:none"
           d="m 2226.26,101.93 c 0,-14.9417 3.02,-25.9808 9.08,-33.1292 6.06,-7.1524 13.38,-10.7227 21.97,-10.7227 8.77,0 16.25,3.7031 22.48,11.1016 6.24,7.3984 9.36,18.8711 9.36,34.4103 0,14.801 -3.05,25.871 -9.13,33.238 -6.09,7.371 -13.37,11.051 -21.82,11.051 -8.4,0 -15.81,-3.91 -22.25,-11.758 -6.46,-7.84 -9.69,-19.23 -9.69,-34.191 z M 2208.44,0 l 0,160.68 17.94,0 0,-15.102 c 4.22,5.922 8.99,10.344 14.31,13.301 5.33,2.961 11.79,4.422 19.36,4.422 9.93,0 18.67,-2.563 26.27,-7.653 7.58,-5.097 13.3,-12.308 17.17,-21.597 3.86,-9.301 5.78,-19.5 5.78,-30.582 0,-11.8909 -2.12,-22.5784 -6.39,-32.0901 -4.28,-9.5078 -10.46,-16.8203 -18.59,-21.8906 -8.14,-5.0664 -16.69,-7.5899 -25.66,-7.5899 -6.55,0 -12.45,1.3711 -17.66,4.1602 -5.22,2.7617 -9.5,6.2617 -12.85,10.4922 l 0,-56.5508 -19.68,0" /><path
           inkscape:connector-curvature="0"
           id="path3064"
           style="fill:#231f20;fill-opacity:1;fill-rule:nonzero;stroke:none"
           d="m 2407.18,102.809 c -7.15,-2.9106 -17.87,-5.3988 -32.16,-7.4301 -8.1,-1.1601 -13.82,-2.4805 -17.17,-3.9375 -3.36,-1.4609 -5.95,-3.5898 -7.77,-6.4023 -1.82,-2.8086 -2.74,-5.9297 -2.74,-9.3477 0,-5.2422 1.99,-9.6211 5.97,-13.1211 3.98,-3.5117 9.79,-5.2422 17.44,-5.2422 7.59,0 14.34,1.6407 20.24,4.9727 5.91,3.3086 10.24,7.8476 13,13.6094 2.13,4.4492 3.19,11.0117 3.19,19.6796 l 0,7.2192 z m 1.65,-43.9692 c -7.31,-6.1796 -14.33,-10.5703 -21.08,-13.1289 -6.73,-2.539 -13.96,-3.8125 -21.71,-3.8125 -12.75,0 -22.56,3.1133 -29.4,9.3516 -6.86,6.2305 -10.3,14.1914 -10.3,23.8984 0,5.6914 1.3,10.8907 3.88,15.5821 2.59,4.6992 5.98,8.4687 10.19,11.3205 4.19,2.84 8.91,5 14.16,6.461 3.86,1.019 9.69,2 17.49,2.957 15.91,1.883 27.61,4.152 35.12,6.769 0.07,2.711 0.11,4.422 0.11,5.133 0,8.027 -1.87,13.68 -5.58,16.957 -5.03,4.453 -12.51,6.672 -22.42,6.672 -9.26,0 -16.11,-1.621 -20.51,-4.859 -4.41,-3.243 -7.68,-8.981 -9.79,-17.243 l -19.25,2.633 c 1.75,8.239 4.63,14.891 8.64,19.957 4.01,5.071 9.79,8.981 17.39,11.703 7.58,2.731 16.37,4.11 26.36,4.11 9.91,0 17.97,-1.16 24.17,-3.492 6.2,-2.34 10.76,-5.278 13.67,-8.809 2.92,-3.539 4.97,-8.012 6.13,-13.398 0.66,-3.364 0.98,-9.422 0.98,-18.161 l 0,-26.2496 c 0,-18.3008 0.42,-29.8711 1.26,-34.7305 0.83,-4.8515 2.5,-9.4921 4.97,-13.9414 l -20.56,0 c -2.04,4.0703 -3.35,8.8516 -3.92,14.3203" /><path
           inkscape:connector-curvature="0"
           id="path3066"
           style="fill:#231f20;fill-opacity:1;fill-rule:nonzero;stroke:none"
           d="m 2457.37,44.5195 0,116.1605 17.73,0 0,-17.61 c 4.51,8.231 8.68,13.66 12.52,16.301 3.82,2.617 8.03,3.93 12.62,3.93 6.64,0 13.38,-2.11 20.24,-6.352 l -6.78,-18.269 c -4.81,2.851 -9.62,4.269 -14.43,4.269 -4.32,0 -8.17,-1.289 -11.6,-3.879 -3.43,-2.59 -5.87,-6.172 -7.33,-10.781 -2.19,-6.988 -3.28,-14.66 -3.28,-22.969 l 0,-60.8005 -19.69,0" /><path
           inkscape:connector-curvature="0"
           id="path3068"
           style="fill:#231f20;fill-opacity:1;fill-rule:nonzero;stroke:none"
           d="m 2575.19,62.1289 2.84,-17.3789 c -5.55,-1.1719 -10.5,-1.7695 -14.89,-1.7695 -7.14,0 -12.69,1.1406 -16.62,3.3984 -3.93,2.2617 -6.72,5.2305 -8.31,8.9102 -1.6,3.6797 -2.4,11.4297 -2.4,23.25 l 0,66.8319 -14.45,0 0,15.309 14.45,0 0,28.75 19.56,11.82 0,-40.57 19.82,0 0,-15.309 -19.82,0 0,-67.9218 c 0,-5.6289 0.36,-9.2383 1.05,-10.8398 0.7,-1.5977 1.81,-2.8789 3.38,-3.8203 1.57,-0.961 3.82,-1.418 6.73,-1.418 2.19,0 5.07,0.25 8.66,0.7578" /><path
           inkscape:connector-curvature="0"
           id="path3070"
           style="fill:#231f20;fill-opacity:1;fill-rule:nonzero;stroke:none"
           d="m 2594.54,44.5195 0,116.1605 19.68,0 0,-116.1605 -19.68,0 z m 0,137.7105 0,22.629 19.68,0 0,-22.629 -19.68,0" /><path
           inkscape:connector-curvature="0"
           id="path3072"
           style="fill:#231f20;fill-opacity:1;fill-rule:nonzero;stroke:none"
           d="m 2719.99,87.0703 19.36,-2.5312 c -2.13,-13.3282 -7.53,-23.7774 -16.24,-31.3282 -8.73,-7.539 -19.43,-11.3125 -32.11,-11.3125 -15.89,0 -28.69,5.1914 -38.34,15.5821 -9.65,10.3906 -14.5,25.289 -14.5,44.6795 0,12.539 2.08,23.512 6.23,32.93 4.16,9.398 10.49,16.441 19,21.16 8.49,4.711 17.72,7.051 27.71,7.051 12.62,0 22.94,-3.192 30.97,-9.571 8.01,-6.378 13.15,-15.441 15.41,-27.179 l -19.14,-2.961 c -1.82,7.808 -5.05,13.68 -9.69,17.621 -4.62,3.937 -10.21,5.898 -16.77,5.898 -9.92,0 -17.97,-3.539 -24.17,-10.66 -6.21,-7.109 -9.31,-18.347 -9.31,-33.738 0,-15.6094 2.99,-26.9415 8.96,-34.0196 5.99,-7.0703 13.78,-10.6133 23.42,-10.6133 7.73,0 14.18,2.3828 19.37,7.1133 5.17,4.7383 8.45,12.0391 9.84,21.8789" /><path
           inkscape:connector-curvature="0"
           id="path3074"
           style="fill:#231f20;fill-opacity:1;fill-rule:nonzero;stroke:none"
           d="m 2756.31,44.5195 0,116.1605 19.68,0 0,-116.1605 -19.68,0 z m 0,137.7105 0,22.629 19.68,0 0,-22.629 -19.68,0" /><path
           inkscape:connector-curvature="0"
           id="path3076"
           style="fill:#231f20;fill-opacity:1;fill-rule:nonzero;stroke:none"
           d="m 2823.78,101.93 c 0,-14.9417 3.02,-25.9808 9.08,-33.1292 6.06,-7.1524 13.38,-10.7227 21.97,-10.7227 8.76,0 16.25,3.7031 22.48,11.1016 6.23,7.3984 9.35,18.8711 9.35,34.4103 0,14.801 -3.04,25.871 -9.12,33.238 -6.09,7.371 -13.37,11.051 -21.83,11.051 -8.39,0 -15.8,-3.91 -22.24,-11.758 -6.46,-7.84 -9.69,-19.23 -9.69,-34.191 z M 2805.96,0 l 0,160.68 17.94,0 0,-15.102 c 4.22,5.922 8.99,10.344 14.31,13.301 5.33,2.961 11.78,4.422 19.36,4.422 9.93,0 18.67,-2.563 26.27,-7.653 7.58,-5.097 13.3,-12.308 17.17,-21.597 3.86,-9.301 5.78,-19.5 5.78,-30.582 0,-11.8909 -2.12,-22.5784 -6.39,-32.0901 -4.28,-9.5078 -10.46,-16.8203 -18.59,-21.8906 -8.14,-5.0664 -16.69,-7.5899 -25.66,-7.5899 -6.55,0 -12.45,1.3711 -17.66,4.1602 -5.22,2.7617 -9.5,6.2617 -12.86,10.4922 l 0,-56.5508 -19.67,0" /><path
           inkscape:connector-curvature="0"
           id="path3078"
           style="fill:#231f20;fill-opacity:1;fill-rule:nonzero;stroke:none"
           d="m 3004.7,102.809 c -7.15,-2.9106 -17.87,-5.3988 -32.16,-7.4301 -8.1,-1.1601 -13.82,-2.4805 -17.17,-3.9375 -3.36,-1.4609 -5.95,-3.5898 -7.77,-6.4023 -1.82,-2.8086 -2.74,-5.9297 -2.74,-9.3477 0,-5.2422 1.99,-9.6211 5.97,-13.1211 3.97,-3.5117 9.79,-5.2422 17.44,-5.2422 7.59,0 14.34,1.6407 20.24,4.9727 5.91,3.3086 10.24,7.8476 13,13.6094 2.13,4.4492 3.19,11.0117 3.19,19.6796 l 0,7.2192 z m 1.65,-43.9692 c -7.31,-6.1796 -14.33,-10.5703 -21.08,-13.1289 -6.74,-2.539 -13.96,-3.8125 -21.71,-3.8125 -12.75,0 -22.56,3.1133 -29.4,9.3516 -6.87,6.2305 -10.3,14.1914 -10.3,23.8984 0,5.6914 1.3,10.8907 3.88,15.5821 2.59,4.6992 5.98,8.4687 10.19,11.3205 4.19,2.84 8.91,5 14.16,6.461 3.86,1.019 9.69,2 17.49,2.957 15.91,1.883 27.61,4.152 35.12,6.769 0.07,2.711 0.11,4.422 0.11,5.133 0,8.027 -1.87,13.68 -5.58,16.957 -5.03,4.453 -12.51,6.672 -22.42,6.672 -9.26,0 -16.11,-1.621 -20.51,-4.859 -4.42,-3.243 -7.68,-8.981 -9.79,-17.243 l -19.26,2.633 c 1.76,8.239 4.63,14.891 8.65,19.957 4.01,5.071 9.79,8.981 17.39,11.703 7.58,2.731 16.37,4.11 26.36,4.11 9.91,0 17.97,-1.16 24.17,-3.492 6.2,-2.34 10.76,-5.278 13.67,-8.809 2.92,-3.539 4.97,-8.012 6.13,-13.398 0.66,-3.364 0.98,-9.422 0.98,-18.161 l 0,-26.2496 c 0,-18.3008 0.41,-29.8711 1.26,-34.7305 0.83,-4.8515 2.5,-9.4921 4.97,-13.9414 l -20.56,0 c -2.04,4.0703 -3.35,8.8516 -3.92,14.3203" /><path
           inkscape:connector-curvature="0"
           id="path3080"
           style="fill:#231f20;fill-opacity:1;fill-rule:nonzero;stroke:none"
           d="m 3130.92,87.0703 19.35,-2.5312 c -2.13,-13.3282 -7.53,-23.7774 -16.24,-31.3282 -8.73,-7.539 -19.42,-11.3125 -32.12,-11.3125 -15.88,0 -28.67,5.1914 -38.33,15.5821 -9.64,10.3906 -14.49,25.289 -14.49,44.6795 0,12.539 2.07,23.512 6.23,32.93 4.16,9.398 10.49,16.441 19,21.16 8.48,4.711 17.72,7.051 27.71,7.051 12.61,0 22.94,-3.192 30.97,-9.571 8.01,-6.378 13.15,-15.441 15.4,-27.179 l -19.13,-2.961 c -1.82,7.808 -5.05,13.68 -9.69,17.621 -4.62,3.937 -10.21,5.898 -16.78,5.898 -9.91,0 -17.97,-3.539 -24.17,-10.66 -6.21,-7.109 -9.3,-18.347 -9.3,-33.738 0,-15.6094 2.98,-26.9415 8.96,-34.0196 5.98,-7.0703 13.78,-10.6133 23.42,-10.6133 7.72,0 14.18,2.3828 19.35,7.1133 5.19,4.7383 8.46,12.0391 9.86,21.8789" /><path
           inkscape:connector-curvature="0"
           id="path3082"
           style="fill:#231f20;fill-opacity:1;fill-rule:nonzero;stroke:none"
           d="m 3167.24,44.5195 0,116.1605 19.67,0 0,-116.1605 -19.67,0 z m 0,137.7105 0,22.629 19.67,0 0,-22.629 -19.67,0" /><path
           inkscape:connector-curvature="0"
           id="path3084"
           style="fill:#231f20;fill-opacity:1;fill-rule:nonzero;stroke:none"
           d="m 3253.09,175.121 14.55,30.617 25.8,0 -24.06,-30.617 -16.29,0 z m -23.3,-72.531 c 0,-14.8595 3.24,-26.0119 9.73,-33.4103 6.49,-7.3985 14.66,-11.1016 24.5,-11.1016 9.77,0 17.9,3.7227 24.4,11.1524 6.48,7.4492 9.73,18.789 9.73,34.0195 0,14.371 -3.28,25.262 -9.8,32.66 -6.52,7.391 -14.64,11.09 -24.33,11.09 -9.84,0 -18.01,-3.68 -24.5,-11.051 -6.49,-7.359 -9.73,-18.48 -9.73,-33.359 z m -20.25,0 c 0,21.519 5.99,37.461 17.94,47.801 9.99,8.621 22.17,12.91 36.54,12.91 15.97,0 29.02,-5.223 39.15,-15.692 10.13,-10.468 15.22,-24.918 15.22,-43.371 0,-14.9489 -2.26,-26.7068 -6.73,-35.2771 -4.49,-8.5703 -11.02,-15.2226 -19.58,-19.9492 -8.57,-4.75 -17.92,-7.1133 -28.06,-7.1133 -16.26,0 -29.41,5.211 -39.43,15.6328 -10.03,10.4376 -15.05,25.4493 -15.05,45.0588" /><path
           inkscape:connector-curvature="0"
           id="path3086"
           style="fill:#231f20;fill-opacity:1;fill-rule:nonzero;stroke:none"
           d="m 3341.47,44.5195 0,116.1605 17.71,0 0,-16.532 c 8.53,12.774 20.86,19.153 36.97,19.153 7,0 13.43,-1.262 19.32,-3.77 5.86,-2.531 10.25,-5.82 13.16,-9.89 2.93,-4.09 4.96,-8.942 6.13,-14.551 0.74,-3.66 1.1,-10.039 1.1,-19.149 l 0,-71.4215 -19.69,0 0,70.6605 c 0,8.011 -0.77,14.011 -2.3,17.992 -1.53,3.969 -4.24,7.137 -8.14,9.519 -3.9,2.36 -8.49,3.539 -13.73,3.539 -8.4,0 -15.62,-2.652 -21.71,-7.98 -6.09,-5.32 -9.15,-15.422 -9.15,-30.289 l 0,-63.4415 -19.67,0" /></g></g><g
       id="g3088"
       transform="matrix(0.22211819,0,0,0.22211819,37.833018,114.68757)"
       style="fill:url(#linearGradient4135);fill-opacity:1;fill-rule:nonzero"><g
         clip-path="url(#clipPath3092)"
         id="g3090"
         style="fill:url(#linearGradient4141);fill-opacity:1;fill-rule:nonzero"><path
           inkscape:connector-curvature="0"
           id="path3116"
           style="fill:url(#linearGradient4139);fill-opacity:1;fill-rule:nonzero;stroke:none"
           d="m 2911.32,907.02 -327.96,167.67 c -46.17,-10.35 -95.13,-16.02 -145.89,-16.02 -281.52,0 -509.67,171.54 -509.67,383.04 0,211.59 228.15,383.13 509.67,383.13 281.52,0 509.76,-171.54 509.76,-383.13 0,-140.4 -100.62,-263.07 -250.56,-329.76 l 214.65,-204.93" /></g></g><g
       id="g3118"
       transform="matrix(0.22211819,0,0,0.22211819,37.833018,114.68757)"><g
         clip-path="url(#clipPath3122)"
         id="g3120"><path
           inkscape:connector-curvature="0"
           id="path3126"
           style="fill:#231f20;fill-opacity:1;fill-rule:nonzero;stroke:none"
           d="m 63.6797,563.859 192.6363,0 c -2.586,29.012 -9.961,50.782 -22.086,65.289 -18.625,22.532 -42.781,33.782 -72.449,33.782 -26.855,0 -49.422,-8.981 -67.7302,-26.969 C 75.7539,618 65.6367,593.961 63.6797,563.859 z M 255.68,469.32 316.105,461.84 C 306.559,426.539 288.91,399.141 263.145,379.641 237.379,360.16 204.449,350.41 164.391,350.41 113.926,350.41 73.9102,365.949 44.3398,397.031 14.7852,428.109 0,471.691 0,527.789 c 0,58.039 14.9453,103.09 44.8359,135.141 29.8907,32.05 68.6561,48.082 116.3091,48.082 46.117,0 83.804,-15.703 113.043,-47.102 29.242,-31.41 43.863,-75.582 43.863,-132.551 0,-3.468 -0.113,-8.66 -0.336,-15.589 l -257.297,0 c 2.1797,-37.899 12.8867,-66.93 32.164,-87.071 19.277,-20.129 43.32,-30.211 72.125,-30.211 21.438,0 39.742,5.621 54.906,16.891 15.157,11.262 27.18,29.242 36.067,53.941" /><path
           inkscape:connector-curvature="0"
           id="path3128"
           style="fill:#231f20;fill-opacity:1;fill-rule:nonzero;stroke:none"
           d="m 350.152,501.141 179.652,0 0,58.8086 -179.652,0 0,-58.8086 z" /><path
           inkscape:connector-curvature="0"
           id="path3130"
           style="fill:#231f20;fill-opacity:1;fill-rule:nonzero;stroke:none"
           d="m 882.527,601.211 -89.992,-16.242 c -3.039,17.972 -9.914,31.511 -20.621,40.601 -10.726,9.102 -24.648,13.649 -41.754,13.649 -22.726,0 -40.875,-7.86 -54.414,-23.547 -13.539,-15.703 -20.297,-41.973 -20.297,-78.781 0,-40.942 6.871,-69.86 20.621,-86.75 13.758,-16.891 32.227,-25.332 55.399,-25.332 17.316,0 31.511,4.921 42.554,14.781 11.043,9.84 18.848,26.808 23.387,50.851 l 89.66,-15.281 c -9.3,-41.148 -27.172,-72.23 -53.597,-93.23 -26.422,-21.02 -61.832,-31.52 -106.239,-31.52 -50.461,0 -90.679,15.918 -120.687,47.762 -29.985,31.828 -44.992,75.887 -44.992,132.207 0,56.973 15.054,101.32 45.156,133.043 30.098,31.719 70.828,47.59 122.156,47.59 42.008,0 75.414,-9.051 100.227,-27.121 24.793,-18.082 42.601,-45.641 53.433,-82.68" /><path
           inkscape:connector-curvature="0"
           id="path3132"
           style="fill:#231f20;fill-opacity:1;fill-rule:nonzero;stroke:none"
           d="m 935.102,358.199 0,345.012 91.278,0 0,-345.012 -91.278,0 z m 0,391.801 0,84.465 91.278,0 0,-84.465 -91.278,0" /><path
           inkscape:connector-curvature="0"
           id="path3134"
           style="fill:#231f20;fill-opacity:1;fill-rule:nonzero;stroke:none"
           d="m 1176.08,538.18 c 0,-36.809 5.08,-63.45 15.26,-79.91 14.72,-23.829 35.3,-35.739 61.74,-35.739 21,0 38.86,8.938 53.59,26.809 14.73,17.859 22.1,44.551 22.1,80.07 0,39.641 -7.15,68.168 -21.44,85.621 -14.31,17.418 -32.61,26.141 -54.91,26.141 -21.66,0 -39.8,-8.613 -54.41,-25.832 -14.63,-17.211 -21.93,-42.93 -21.93,-77.16 z m 243.64,-179.981 -84.78,0 0,50.68 c -14.09,-19.707 -30.71,-34.391 -49.88,-44.008 -19.16,-9.633 -38.49,-14.461 -57.98,-14.461 -39.64,0 -73.59,15.969 -101.85,47.918 -28.26,31.934 -42.39,76.512 -42.39,133.684 0,58.468 13.75,102.929 41.26,133.367 27.51,30.422 62.26,45.633 104.28,45.633 38.54,0 71.9,-16.032 100.07,-48.082 l 0,171.535 91.27,0 0,-476.266" /><path
           inkscape:connector-curvature="0"
           id="path3136"
           style="fill:#231f20;fill-opacity:1;fill-rule:nonzero;stroke:none"
           d="m 1683.46,523.898 c -11.7,-3.91 -30.21,-8.578 -55.55,-13.976 -25.35,-5.422 -41.91,-10.723 -49.71,-15.91 -11.91,-8.453 -17.87,-19.172 -17.87,-32.172 0,-12.781 4.76,-23.82 14.3,-33.141 9.53,-9.308 21.64,-13.969 36.39,-13.969 16.44,0 32.15,5.418 47.1,16.239 11.05,8.23 18.29,18.312 21.76,30.211 2.38,7.808 3.58,22.64 3.58,44.519 l 0,18.199 z m -122.16,74.071 -82.83,14.929 c 9.3,33.364 25.33,58.043 48.08,74.071 22.73,16.031 56.52,24.043 101.36,24.043 40.71,0 71.02,-4.821 90.96,-14.453 19.93,-9.637 33.94,-21.879 42.07,-36.719 8.12,-14.828 12.18,-42.07 12.18,-81.692 l -0.98,-106.558 c 0,-30.32 1.47,-52.68 4.4,-67.09 2.9,-14.398 8.37,-29.84 16.4,-46.301 l -90.32,0 c -2.38,6.071 -5.3,15.063 -8.77,26.981 -1.52,5.398 -2.59,8.98 -3.24,10.711 -15.59,-15.161 -32.28,-26.52 -50.04,-34.102 -17.76,-7.59 -36.7,-11.379 -56.84,-11.379 -35.54,0 -63.51,9.641 -83.99,28.918 -20.46,19.274 -30.69,43.633 -30.69,73.094 0,19.488 4.65,36.867 13.96,52.148 9.31,15.27 22.36,26.942 39.14,35.09 16.79,8.11 40.99,15.192 72.63,21.27 42.66,8.011 72.21,15.468 88.68,22.41 l 0,9.101 c 0,17.547 -4.33,30.047 -13,37.508 -8.66,7.481 -25.02,11.223 -49.05,11.223 -16.24,0 -28.92,-3.211 -38.02,-9.594 -9.09,-6.387 -16.45,-17.59 -22.09,-33.609" /><path
           inkscape:connector-curvature="0"
           id="path3138"
           style="fill:#231f20;fill-opacity:1;fill-rule:nonzero;stroke:none"
           d="m 1919.25,538.18 c 0,-36.809 5.09,-63.45 15.27,-79.91 14.72,-23.829 35.29,-35.739 61.73,-35.739 21.01,0 38.86,8.938 53.6,26.809 14.72,17.859 22.09,44.551 22.09,80.07 0,39.641 -7.15,68.168 -21.43,85.621 -14.31,17.418 -32.61,26.141 -54.91,26.141 -21.66,0 -39.81,-8.613 -54.42,-25.832 -14.62,-17.211 -21.93,-42.93 -21.93,-77.16 z m 243.65,-179.981 -84.78,0 0,50.68 c -14.09,-19.707 -30.72,-34.391 -49.88,-44.008 -19.17,-9.633 -38.49,-14.461 -57.98,-14.461 -39.64,0 -73.59,15.969 -101.85,47.918 -28.26,31.934 -42.39,76.512 -42.39,133.684 0,58.468 13.74,102.929 41.25,133.367 27.51,30.422 62.26,45.633 104.28,45.633 38.55,0 71.91,-16.032 100.07,-48.082 l 0,171.535 91.28,0 0,-476.266" /><path
           inkscape:connector-curvature="0"
           id="path3140"
           style="fill:#231f20;fill-opacity:1;fill-rule:nonzero;stroke:none"
           d="m 2426.63,523.898 c -11.7,-3.91 -30.21,-8.578 -55.55,-13.976 -25.35,-5.422 -41.91,-10.723 -49.71,-15.91 -11.91,-8.453 -17.87,-19.172 -17.87,-32.172 0,-12.781 4.76,-23.82 14.3,-33.141 9.53,-9.308 21.65,-13.969 36.39,-13.969 16.44,0 32.16,5.418 47.11,16.239 11.04,8.23 18.28,18.312 21.76,30.211 2.37,7.808 3.57,22.64 3.57,44.519 l 0,18.199 z m -122.16,74.071 -82.83,14.929 c 9.31,33.364 25.33,58.043 48.09,74.071 22.72,16.031 56.52,24.043 101.35,24.043 40.72,0 71.03,-4.821 90.96,-14.453 19.93,-9.637 33.95,-21.879 42.07,-36.719 8.13,-14.828 12.18,-42.07 12.18,-81.692 l -0.97,-106.558 c 0,-30.32 1.47,-52.68 4.4,-67.09 2.91,-14.398 8.37,-29.84 16.39,-46.301 l -90.31,0 c -2.38,6.071 -5.31,15.063 -8.78,26.981 -1.51,5.398 -2.59,8.98 -3.24,10.711 -15.59,-15.161 -32.28,-26.52 -50.04,-34.102 -17.75,-7.59 -36.7,-11.379 -56.84,-11.379 -35.53,0 -63.51,9.641 -83.98,28.918 -20.47,19.274 -30.69,43.633 -30.69,73.094 0,19.488 4.65,36.867 13.95,52.148 9.32,15.27 22.36,26.942 39.15,35.09 16.78,8.11 40.99,15.192 72.62,21.27 42.67,8.011 72.22,15.468 88.68,22.41 l 0,9.101 c 0,17.547 -4.33,30.047 -13,37.508 -8.66,7.481 -25.01,11.223 -49.05,11.223 -16.24,0 -28.92,-3.211 -38.02,-9.594 -9.09,-6.387 -16.44,-17.59 -22.09,-33.609" /><path
           inkscape:connector-curvature="0"
           id="path3142"
           style="fill:#231f20;fill-opacity:1;fill-rule:nonzero;stroke:none"
           d="m 2903.47,358.199 -91.29,0 0,176.09 c 0,37.242 -1.96,61.352 -5.85,72.281 -3.91,10.93 -10.24,19.442 -19.02,25.489 -8.77,6.082 -19.32,9.113 -31.66,9.113 -15.81,0 -30.01,-4.344 -42.56,-12.992 -12.57,-8.668 -21.17,-20.141 -25.82,-34.45 -4.67,-14.289 -6.99,-40.71 -6.99,-79.269 l 0,-156.262 -91.29,0 0,345.012 84.79,0 0,-50.672 c 30.1,38.992 68,58.473 113.7,58.473 20.14,0 38.56,-3.633 55.23,-10.883 16.67,-7.258 29.29,-16.52 37.85,-27.77 8.55,-11.269 14.51,-24.039 17.87,-38.347 3.36,-14.293 5.04,-34.75 5.04,-61.403 l 0,-214.41" /><path
           inkscape:connector-curvature="0"
           id="path3144"
           style="fill:#231f20;fill-opacity:1;fill-rule:nonzero;stroke:none"
           d="m 2979.42,358.199 0,345.012 91.28,0 0,-345.012 -91.28,0 z m 0,391.801 0,84.465 91.28,0 0,-84.465 -91.28,0" /><path
           inkscape:connector-curvature="0"
           id="path3146"
           style="fill:#231f20;fill-opacity:1;fill-rule:nonzero;stroke:none"
           d="m 3338,523.898 c -11.7,-3.91 -30.21,-8.578 -55.55,-13.976 -25.35,-5.422 -41.91,-10.723 -49.71,-15.91 -11.91,-8.453 -17.87,-19.172 -17.87,-32.172 0,-12.781 4.76,-23.82 14.3,-33.141 9.53,-9.308 21.65,-13.969 36.39,-13.969 16.44,0 32.15,5.418 47.11,16.239 11.04,8.23 18.28,18.312 21.75,30.211 2.39,7.808 3.58,22.64 3.58,44.519 l 0,18.199 z m -122.16,74.071 -82.83,14.929 c 9.3,33.364 25.34,58.043 48.08,74.071 22.73,16.031 56.53,24.043 101.36,24.043 40.71,0 71.03,-4.821 90.96,-14.453 19.93,-9.637 33.95,-21.879 42.07,-36.719 8.12,-14.828 12.18,-42.07 12.18,-81.692 l -0.97,-106.558 c 0,-30.32 1.46,-52.68 4.39,-67.09 2.91,-14.398 8.37,-29.84 16.4,-46.301 l -90.31,0 c -2.38,6.071 -5.31,15.063 -8.78,26.981 -1.51,5.398 -2.59,8.98 -3.24,10.711 -15.59,-15.161 -32.28,-26.52 -50.03,-34.102 -17.77,-7.59 -36.71,-11.379 -56.85,-11.379 -35.54,0 -63.5,9.641 -83.98,28.918 -20.46,19.274 -30.7,43.633 -30.7,73.094 0,19.488 4.65,36.867 13.96,52.148 9.32,15.27 22.36,26.942 39.15,35.09 16.78,8.11 40.99,15.192 72.62,21.27 42.66,8.011 72.21,15.468 88.68,22.41 l 0,9.101 c 0,17.547 -4.33,30.047 -12.99,37.508 -8.67,7.481 -25.02,11.223 -49.06,11.223 -16.24,0 -28.92,-3.211 -38.01,-9.594 -9.1,-6.387 -16.46,-17.59 -22.1,-33.609" /></g></g></g></svg>