<?xml version="1.0" encoding="UTF-8" standalone="no"?>
<svg
   xmlns:svg="http://www.w3.org/2000/svg"
   xmlns="http://www.w3.org/2000/svg"
   id="svg8"
   version="1.1"
   viewBox="0 0 29.633333 29.633337"
   height="29.633337mm"
   width="29.633333mm">
  <g
     transform="translate(220.94199,-194.77303)"
     id="layer1">
    <g
       transform="matrix(0.35277777,0,0,-0.35277777,-196.30858,224.40636)"
       id="g140">
      <path
         id="path142"
         style="fill:#ef4a1e;fill-opacity:1;fill-rule:nonzero;stroke:none"
         d="m 0,0 h -55.654 c -7.827,0 -14.173,6.346 -14.173,14.173 v 55.654 c 0,7.827 6.346,14.173 14.173,14.173 H 0 C 7.828,84 14.173,77.654 14.173,69.827 V 14.173 C 14.173,6.346 7.828,0 0,0" />
    </g>
    <g
       transform="matrix(0.35277777,0,0,-0.35277777,-206.12536,198.32215)"
       id="g144">
      <path
         id="path146"
         style="fill:#ffffff;fill-opacity:1;fill-rule:nonzero;stroke:none"
         d="m 0,0 c 8.614,0 15.597,-6.983 15.597,-15.597 0,-8.614 -6.983,-15.597 -15.597,-15.597 -8.614,0 -15.597,6.983 -15.597,15.597 C -15.597,-6.983 -8.614,0 0,0" />
    </g>
    <g
       transform="matrix(0.35277777,0,0,-0.35277777,-233.64411,473.65733)"
       id="g148">
      <g
         id="g150" />
      <g
         id="g162">
        <g
           id="g160"
           clip-path="url(#clipPath154)">
          <text
             id="text158"
             style="font-variant:normal;font-weight:bold;font-stretch:normal;font-size:25.15990067px;font-family:Arial;-inkscape-font-specification:Arial-BoldMT;writing-mode:lr-tb;fill:#ef4a1e;fill-opacity:1;fill-rule:nonzero;stroke:none"
             transform="matrix(1,0,0,-1,71.0098,756.4106)">
            <tspan
               id="tspan156"
               y="0"
               x="0">£</tspan>
          </text>
        </g>
      </g>
    </g>
    <g
       transform="matrix(0.35277777,0,0,-0.35277777,-219.29547,216.98476)"
       id="g164">
      <path
         id="path166"
         style="fill:#ffffff;fill-opacity:1;fill-rule:nonzero;stroke:none"
         d="m 0,0 c 0.948,0.948 4.776,4.456 8.324,7.688 4.268,3.888 9.834,6.042 15.607,6.042 h 20.558 c 1.969,0 3.566,-1.597 3.566,-3.566 V 8.56 c 0,-1.971 -1.597,-3.567 -3.566,-3.567 H 30.581 c 0,-1.069 0.866,-1.935 1.935,-1.935 h 9.332 c 4.013,0 7.902,1.394 11.001,3.944 l 13.285,10.929 c 1.554,1.278 3.76,1.387 5.432,0.269 2.4,-1.605 2.722,-5.009 0.666,-7.036 L 57.079,-4.763 C 53.95,-8.095 49.583,-9.985 45.012,-9.985 H 19.971 L 8.482,-16.227 Z" />
    </g>
    <g
       transform="matrix(0.35277777,0,0,-0.35277777,-219.29547,216.98476)"
       id="g168">
      <path
         id="path170"
         style="fill:none;stroke:#ef4a1e;stroke-width:1;stroke-linecap:butt;stroke-linejoin:miter;stroke-miterlimit:10;stroke-dasharray:none;stroke-opacity:1"
         d="m 0,0 c 0.948,0.948 4.776,4.456 8.324,7.688 4.268,3.888 9.834,6.042 15.607,6.042 h 20.558 c 1.969,0 3.566,-1.597 3.566,-3.566 V 8.56 c 0,-1.971 -1.597,-3.567 -3.566,-3.567 H 30.581 c 0,-1.069 0.866,-1.935 1.935,-1.935 h 9.332 c 4.013,0 7.902,1.394 11.001,3.944 l 13.285,10.929 c 1.554,1.278 3.76,1.387 5.432,0.269 2.4,-1.605 2.722,-5.009 0.666,-7.036 L 57.079,-4.763 C 53.95,-8.095 49.583,-9.985 45.012,-9.985 H 19.971 L 8.482,-16.227 Z" />
    </g>
    <g
       transform="matrix(0.35277777,0,0,-0.35277777,-215.79627,224.05358)"
       id="g172">
      <path
         id="path174"
         style="fill:#ffffff;fill-opacity:1;fill-rule:nonzero;stroke:none"
         d="M 0,0 C -7.264,0 -13.173,5.91 -13.173,13.173 V 26.298 L 3.465,0 Z" />
    </g>
    <g
       transform="matrix(0.35277777,0,0,-0.35277777,-220.79633,213.5588)"
       id="g176">
      <path
         id="path178"
         style="fill:#ef4a1e;fill-opacity:1;fill-rule:nonzero;stroke:none"
         d="m 0,0 v -16.576 c 0,-7.827 6.346,-14.173 14.173,-14.173 h 5.281 z M 2,-6.902 15.822,-28.749 H 14.173 C 7.461,-28.749 2,-23.288 2,-16.576 v 9.674" />
    </g>
  </g>
</svg>
