<?xml version="1.0" encoding="UTF-8" standalone="no"?>
<svg
   xmlns:svg="http://www.w3.org/2000/svg"
   xmlns="http://www.w3.org/2000/svg"
   id="svg8"
   version="1.1"
   viewBox="0 0 29.633333 29.6334"
   height="29.6334mm"
   width="29.633333mm">
  <g
     transform="translate(225.72738,-20.623778)"
     id="layer1">
    <g
       transform="translate(-281.72756,-155.8826)"
       id="layer1-4">
      <g
         transform="matrix(0.35277777,0,0,-0.35277777,31.638476,447.21789)"
         id="g862" />
      <g
         id="g1931"
         transform="translate(-246.0625,-201.6125)">
        <g
           transform="translate(389.99583,9.525)"
           id="g1693">
          <g
             transform="matrix(0.35277777,0,0,-0.35277777,-100.65319,449.33455)"
             id="g1484">
            <g
               clip-path="url(#clipPath870)"
               id="g866">
              <g
                 transform="translate(105.8838,144.8712)"
                 id="g872">
                <path
                   id="path874"
                   style="fill:#328d85;fill-opacity:1;fill-rule:nonzero;stroke:none"
                   d="m 0,0 h -55.653 c -7.828,0 -14.174,6.345 -14.174,14.173 v 55.653 c 0,7.828 6.346,14.174 14.174,14.174 H 0 C 7.828,84 14.173,77.654 14.173,69.826 V 14.173 C 14.173,6.345 7.828,0 0,0" />
              </g>
              <g
                 transform="translate(59.3037,201.9083)"
                 id="g876">
                <path
                   id="path878"
                   style="fill:#ffffff;fill-opacity:1;fill-rule:nonzero;stroke:none"
                   d="m 0,0 h 36.73 c 1.698,0 3.074,-1.085 3.074,-2.425 v -28.758 c 0,-1.339 -1.376,-2.425 -3.074,-2.425 H 0 c -1.697,0 -3.073,1.086 -3.073,2.425 V -2.425 C -3.073,-1.085 -1.697,0 0,0" />
              </g>
              <g
                 transform="translate(59.3037,201.9083)"
                 id="g880">
                <path
                   id="path882"
                   style="fill:none;stroke:#ffffff;stroke-width:1.45200002;stroke-linecap:butt;stroke-linejoin:miter;stroke-miterlimit:10;stroke-dasharray:none;stroke-opacity:1"
                   d="m 0,0 h 36.73 c 1.698,0 3.074,-1.085 3.074,-2.425 v -28.758 c 0,-1.339 -1.376,-2.425 -3.074,-2.425 H 0 c -1.697,0 -3.073,1.086 -3.073,2.425 V -2.425 C -3.073,-1.085 -1.697,0 0,0 Z" />
              </g>
              <g
                 transform="translate(54.7739,197.5636)"
                 id="g884">
                <path
                   id="path886"
                   style="fill:#ffffff;fill-opacity:1;fill-rule:nonzero;stroke:none"
                   d="m 0,0 c -2.068,0 -3.751,1.683 -3.751,3.75 v 4.584 c 0,2.068 1.683,3.751 3.751,3.751 h 45.791 c 2.067,0 3.75,-1.683 3.75,-3.751 V 3.75 C 49.541,1.683 47.858,0 45.791,0 Z" />
              </g>
              <g
                 transform="translate(100.5645,210.9464)"
                 id="g888">
                <path
                   id="path890"
                   style="fill:#328d85;fill-opacity:1;fill-rule:nonzero;stroke:none"
                   d="m 0,0 h -45.791 c -2.784,0 -5.048,-2.265 -5.048,-5.049 v -4.584 c 0,-2.783 2.264,-5.048 5.048,-5.048 H 0 c 2.784,0 5.048,2.265 5.048,5.048 v 4.584 C 5.048,-2.265 2.784,0 0,0 m 0,-2.596 c 1.354,0 2.453,-1.098 2.453,-2.453 v -4.584 c 0,-1.354 -1.099,-2.452 -2.453,-2.452 h -45.791 c -1.355,0 -2.453,1.098 -2.453,2.452 v 4.584 c 0,1.355 1.098,2.453 2.453,2.453 H 0" />
              </g>
              <g
                 transform="translate(84.8071,218.545)"
                 id="g892">
                <path
                   id="path894"
                   style="fill:#ffffff;fill-opacity:1;fill-rule:nonzero;stroke:none"
                   d="m 0,0 c 0.686,-0.025 1.242,-0.216 1.733,-0.683 0.98,-0.827 1.503,-2.23 1.275,-3.56 -0.098,-1.223 -0.883,-2.374 -2.321,-3.489 -1.844,-1.352 -4.001,-2.501 -6.707,-3.605 -0.506,-0.207 -0.767,0.168 -0.772,0.763 -0.01,1.41 -0.006,2.864 0.018,4.129 0.018,1.018 0.377,1.996 1.029,2.778 C -4.496,-2.168 -2.238,0.084 0,0 m -8.692,-10.682 c -0.021,-0.183 -0.1,-0.677 -0.223,-0.803 -0.188,-0.192 -0.458,0.067 -0.702,0.152 -2.585,0.896 -4.589,1.542 -6.238,2.773 -1.014,0.756 -1.602,1.907 -1.569,3.129 0.032,1.224 0.621,2.482 1.504,3.238 0.588,0.503 1.274,0.791 1.961,0.791 0.36,0 0.752,-0.073 1.111,-0.252 1.047,-0.432 2.289,-1.33 3.368,-2.446 0.127,-0.139 0.243,-0.284 0.36,-0.433 0.486,-1.168 0.56,-4.996 0.428,-6.149 M 0.131,2.77 C -1.048,2.77 -1.896,2.518 -2.746,2.086 -4.413,1.151 -5.786,0 -7.094,-1.51 c -0.261,-0.324 -0.523,-0.647 -0.784,-1.043 -0.033,0.035 -0.033,0.072 -0.066,0.108 -1.209,1.51 -2.452,2.553 -4.021,3.344 -0.621,0.324 -1.307,0.468 -2.059,0.468 -1.275,0 -2.518,-0.468 -3.498,-1.331 -1.504,-1.366 -2.419,-3.381 -2.387,-5.467 0.033,-2.121 1.242,-4.207 2.91,-5.142 2.06,-1.259 5.088,-2.281 7.933,-2.568 0,0 1.602,0.37 3.007,0.216 3.302,0.503 5.503,1.777 7.955,3.251 0.948,0.575 3.171,2.194 3.629,5.035 C 5.95,-2.373 5.215,0.324 3.4,1.654 1.827,2.809 0.131,2.77 0.131,2.77" />
              </g>
              <g
                 transform="translate(84.8071,218.545)"
                 id="g896">
                <path
                   id="path898"
                   style="fill:none;stroke:#ffffff;stroke-width:0.219;stroke-linecap:butt;stroke-linejoin:miter;stroke-miterlimit:10;stroke-dasharray:none;stroke-opacity:1"
                   d="m 0,0 c 0.686,-0.025 1.242,-0.216 1.733,-0.683 0.98,-0.827 1.503,-2.23 1.275,-3.56 -0.098,-1.223 -0.883,-2.374 -2.321,-3.489 -1.844,-1.352 -4.001,-2.501 -6.707,-3.605 -0.506,-0.207 -0.767,0.168 -0.772,0.763 -0.01,1.41 -0.006,2.864 0.018,4.129 0.018,1.018 0.377,1.996 1.029,2.778 C -4.496,-2.168 -2.238,0.084 0,0 Z m -8.692,-10.682 c -0.021,-0.183 -0.1,-0.677 -0.223,-0.803 -0.188,-0.192 -0.458,0.067 -0.702,0.152 -2.585,0.896 -4.589,1.542 -6.238,2.773 -1.014,0.756 -1.602,1.907 -1.569,3.129 0.032,1.224 0.621,2.482 1.504,3.238 0.588,0.503 1.274,0.791 1.961,0.791 0.36,0 0.752,-0.073 1.111,-0.252 1.047,-0.432 2.289,-1.33 3.368,-2.446 0.127,-0.139 0.243,-0.284 0.36,-0.433 0.486,-1.168 0.56,-4.996 0.428,-6.149 z M 0.131,2.77 C -1.048,2.77 -1.896,2.518 -2.746,2.086 -4.413,1.151 -5.786,0 -7.094,-1.51 c -0.261,-0.324 -0.523,-0.647 -0.784,-1.043 -0.033,0.035 -0.033,0.072 -0.066,0.108 -1.209,1.51 -2.452,2.553 -4.021,3.344 -0.621,0.324 -1.307,0.468 -2.059,0.468 -1.275,0 -2.518,-0.468 -3.498,-1.331 -1.504,-1.366 -2.419,-3.381 -2.387,-5.467 0.033,-2.121 1.242,-4.207 2.91,-5.142 2.06,-1.259 5.088,-2.281 7.933,-2.568 0,0 1.602,0.37 3.007,0.216 3.302,0.503 5.503,1.777 7.955,3.251 0.948,0.575 3.171,2.194 3.629,5.035 C 5.95,-2.373 5.215,0.324 3.4,1.654 1.827,2.809 0.131,2.77 0.131,2.77 Z" />
              </g>
              <g
                 transform="translate(77.6689,164.7902)"
                 id="g900">
                <path
                   id="path902"
                   style="fill:none;stroke:#328d85;stroke-width:4.32600021;stroke-linecap:butt;stroke-linejoin:miter;stroke-miterlimit:10;stroke-dasharray:none;stroke-opacity:1"
                   d="M 0,0 V 43.706" />
              </g>
            </g>
          </g>
        </g>
        <g
           id="g1024"
           transform="matrix(0.35277777,0,0,-0.35277777,304.30987,405.05815)">
          <path
             d="m 0,0 c -3.577,4.766 -4.874,9.52 -0.333,13.379 0.679,0.576 5.346,5.158 5.976,5.732 4.668,4.252 9.822,4.607 16.136,4.607 h 22.484 c 2.154,0 3.901,-1.746 3.901,-3.901 v -1.755 c 0,-2.154 -1.747,-3.9 -3.901,-3.9 H 29.052 v -0.986 c 0,-0.624 6.173,-0.215 6.797,-0.215 l 5.526,0.179 c 4.389,0 8.643,0.43 12.032,3.219 L 65.915,26.43 c 1.698,1.397 4.112,1.516 5.94,0.294 2.625,-1.756 2.795,-5.184 0.546,-7.402 L 59.384,6.291 C 55.962,2.646 52.926,1.886 46.187,0.578 L 18.937,-2.075 C 16.806,-2.282 14.75,-2.974 12.926,-4.096 8.578,-6.771 2.872,-5.2 0.507,-0.676 Z"
             style="fill:#ffffff;fill-opacity:1;fill-rule:nonzero;stroke:none"
             id="path1026" />
        </g>
        <g
           id="g1028"
           transform="matrix(0.35277777,0,0,-0.35277777,304.30987,405.05815)">
          <path
             d="m 0,0 c -3.577,4.766 -4.874,9.52 -0.333,13.379 0.679,0.576 5.346,5.158 5.976,5.732 4.668,4.252 9.822,4.607 16.136,4.607 h 22.484 c 2.154,0 3.901,-1.746 3.901,-3.901 v -1.755 c 0,-2.154 -1.747,-3.9 -3.901,-3.9 H 29.052 v -0.986 c 0,-0.624 6.173,-0.215 6.797,-0.215 l 5.526,0.179 c 4.389,0 8.643,0.43 12.032,3.219 L 65.915,26.43 c 1.698,1.397 4.112,1.516 5.94,0.294 2.625,-1.756 2.795,-5.184 0.546,-7.402 L 59.384,6.291 C 55.962,2.646 52.926,1.886 46.187,0.578 L 18.937,-2.075 C 16.806,-2.282 14.75,-2.974 12.926,-4.096 8.578,-6.771 2.872,-5.2 0.507,-0.676 Z"
             style="fill:none;stroke:#328d85;stroke-width:2.18700004;stroke-linecap:butt;stroke-linejoin:miter;stroke-miterlimit:10;stroke-dasharray:none;stroke-opacity:1"
             id="path1030" />
        </g>
        <g
           id="g1032"
           transform="matrix(0.35277777,0,0,-0.35277777,307.659,407.17344)">
          <path
             d="M 0,0 C -5.199,0.214 -9.031,1.65 -11.424,4.272 -13.548,6.601 -14.52,9.874 -14.311,14 l 10e-4,7.891 19.478,-22.272 z"
             style="fill:#ffffff;fill-opacity:1;fill-rule:nonzero;stroke:none"
             id="path1034" />
        </g>
        <g
           id="g1036"
           transform="matrix(0.35277777,0,0,-0.35277777,302.23282,398.44459)">
          <path
             d="m 0,0 v -10.689 c -0.482,-9.536 5.053,-14.703 15.303,-15.123 l 7.772,-0.572 z m 2.143,-5.705 15.88,-18.158 -2.563,0.189 -0.035,0.002 -0.034,0.002 c -4.869,0.199 -8.449,1.519 -10.642,3.922 -1.925,2.109 -2.802,5.12 -2.609,8.95 l 0.003,0.055 v 0.054 4.984"
             style="fill:#328d85;fill-opacity:1;fill-rule:nonzero;stroke:none"
             id="path1038" />
        </g>
      </g>
    </g>
  </g>
</svg>
