<?xml version="1.0" encoding="UTF-8" standalone="no"?>
<svg
   xmlns:dc="http://purl.org/dc/elements/1.1/"
   xmlns:cc="http://creativecommons.org/ns#"
   xmlns:rdf="http://www.w3.org/1999/02/22-rdf-syntax-ns#"
   xmlns:svg="http://www.w3.org/2000/svg"
   xmlns="http://www.w3.org/2000/svg"
   viewBox="0 0 272.70376 75.949195"
   height="75.949196"
   width="272.70377"
   xml:space="preserve"
   id="svg2"
   version="1.1"><metadata
   id="metadata100"><rdf:RDF><cc:Work
       rdf:about=""><dc:format>image/svg+xml</dc:format><dc:type
         rdf:resource="http://purl.org/dc/dcmitype/StillImage" /><dc:title></dc:title></cc:Work></rdf:RDF></metadata><defs
   id="defs6"><clipPath
     id="clipPath18"
     clipPathUnits="userSpaceOnUse"><path
       id="path16"
       d="M 0,595.276 H 841.89 V 0 H 0 Z" /></clipPath><clipPath
     id="clipPath34"
     clipPathUnits="userSpaceOnUse"><path
       id="path32"
       d="M 0,595.276 H 841.89 V 0 H 0 Z" /></clipPath></defs><g
   id="g12"
   transform="matrix(1.3333333,0,0,-1.3333333,-72.676092,559.9403)"><g
     id="g14"
     clip-path="url(#clipPath18)"><g
       id="g20"
       transform="translate(252.5879,381.2141)"><path
         d="M 0,0 H -20.883 L -36.005,5.972 -47.561,0.835 -62.925,11.03 -83.315,1.266 -93.056,6.482 -104.334,0 h -21.013 c -3.546,0 -6.446,-2.901 -6.446,-6.446 v -1.376 c 0,-3.546 2.9,-6.447 6.446,-6.447 H 0 c 3.546,0 6.447,2.901 6.447,6.447 v 1.376 C 6.447,-2.901 3.546,0 0,0"
         style="fill:#902082;fill-opacity:1;fill-rule:nonzero;stroke:none"
         id="path22" /></g></g></g>
<g
   id="g28"
   transform="matrix(1.3333333,0,0,-1.3333333,-215.25506,633.05772)"><g
     id="g30"
     clip-path="url(#clipPath34)"><g
       id="g36"
       transform="translate(176.9233,436.4885)"><path
         d="m 0,0 c 0,0.005 0,0.009 -0.001,0.014 -0.056,0.79 -0.737,1.39 -1.53,1.342 C -1.711,1.345 -1.888,1.346 -2.067,1.338 -2.946,1.303 -3.814,1.302 -4.66,1.35 -5.166,1.378 -5.662,1.425 -6.152,1.481 -6.297,1.498 -6.438,1.519 -6.581,1.538 -6.935,1.585 -7.284,1.639 -7.627,1.7 c -0.144,0.025 -0.287,0.051 -0.429,0.079 -0.38,0.075 -0.752,0.158 -1.117,0.25 -0.079,0.02 -0.161,0.037 -0.241,0.057 -0.461,0.122 -0.91,0.256 -1.343,0.403 -0.012,0.004 -0.023,0.008 -0.034,0.012 -0.415,0.141 -0.811,0.296 -1.195,0.458 -0.065,0.028 -0.128,0.057 -0.192,0.085 -0.348,0.153 -0.683,0.314 -1.004,0.484 -0.042,0.022 -0.084,0.043 -0.125,0.066 -0.739,0.401 -1.398,0.845 -1.962,1.328 0.24,-1.395 0.585,-2.767 1.022,-4.109 2.344,-1.192 5.225,-1.996 8.428,-2.277 0.988,-0.086 2.004,-0.125 3.046,-0.11 0.469,0.008 0.939,0.014 1.417,0.043 C -0.559,-1.482 0.048,-0.797 0,0"
         style="fill:#008984;fill-opacity:1;fill-rule:nonzero;stroke:none"
         id="path38" /></g><g
       id="g40"
       transform="translate(169.3315,440.3947)"><path
         d="M 0,0 C 3.063,0.215 5.371,2.872 5.156,5.935 4.941,8.997 2.284,11.306 -0.778,11.09 -3.841,10.875 -6.149,8.218 -5.935,5.156 -5.719,2.093 -3.062,-0.215 0,0"
         style="fill:#008984;fill-opacity:1;fill-rule:nonzero;stroke:none"
         id="path42" /></g><g
       id="g44"
       transform="translate(167.7793,453.5139)"><path
         d="M 0,0 C 0.325,0.113 0.655,0.221 0.993,0.323 1.163,0.374 1.333,0.422 1.506,0.47 1.849,0.565 2.197,0.651 2.551,0.733 2.711,0.77 2.869,0.81 3.032,0.844 3.542,0.952 4.061,1.049 4.59,1.128 4.593,1.129 4.597,1.129 4.601,1.13 4.066,2.024 3.592,2.923 3.173,3.823 -0.155,3.222 -3.106,2.1 -5.461,0.63 c -0.403,-1.443 -0.702,-2.898 -0.877,-4.356 0,0 0.001,10e-4 0.001,10e-4 0.26,0.265 0.548,0.521 0.852,0.772 0.094,0.078 0.197,0.154 0.296,0.231 0.222,0.173 0.451,0.342 0.692,0.508 0.12,0.082 0.242,0.163 0.367,0.243 0.251,0.161 0.511,0.317 0.779,0.469 0.121,0.068 0.237,0.138 0.36,0.204 0.394,0.212 0.801,0.417 1.227,0.608 0.427,0.191 0.873,0.369 1.329,0.539 0.143,0.052 0.29,0.1 0.435,0.151"
         style="fill:#008984;fill-opacity:1;fill-rule:nonzero;stroke:none"
         id="path46" /></g><g
       id="g48"
       transform="translate(172.3691,454.6423)"><path
         d="M 0,0 C 0.003,0 0.007,0.001 0.011,0.001 V 0.002 C 0.007,0.001 0.003,0 0,0"
         style="fill:#008984;fill-opacity:1;fill-rule:nonzero;stroke:none"
         id="path50" /></g><g
       id="g52"
       transform="translate(170.811,454.3581)"><path
         d="M 0,0 C -0.163,-0.034 -0.32,-0.074 -0.481,-0.111 -0.32,-0.074 -0.163,-0.034 0,0"
         style="fill:#008984;fill-opacity:1;fill-rule:nonzero;stroke:none"
         id="path54" /></g><g
       id="g56"
       transform="translate(164.7451,439.5324)"><path
         d="M 0,0 C 0.064,-0.028 0.127,-0.057 0.192,-0.084 0.127,-0.057 0.064,-0.028 0,0"
         style="fill:#008984;fill-opacity:1;fill-rule:nonzero;stroke:none"
         id="path58" /></g><g
       id="g60"
       transform="translate(163.7412,440.0168)"><path
         d="M 0,0 C -0.042,0.022 -0.084,0.043 -0.125,0.065 -0.084,0.043 -0.042,0.022 0,0"
         style="fill:#008984;fill-opacity:1;fill-rule:nonzero;stroke:none"
         id="path62" /></g><g
       id="g64"
       transform="translate(167.3442,453.3625)"><path
         d="M 0,0 C 0.143,0.053 0.29,0.101 0.435,0.151 0.29,0.101 0.143,0.053 0,0"
         style="fill:#008984;fill-opacity:1;fill-rule:nonzero;stroke:none"
         id="path66" /></g><g
       id="g68"
       transform="translate(166.0156,452.8239)"><path
         d="M 0,0 Z"
         style="fill:#008984;fill-opacity:1;fill-rule:nonzero;stroke:none"
         id="path70" /></g><g
       id="g72"
       transform="translate(163.6494,451.5427)"><path
         d="M 0,0 C -0.125,-0.08 -0.247,-0.161 -0.367,-0.243 -0.247,-0.161 -0.125,-0.08 0,0"
         style="fill:#008984;fill-opacity:1;fill-rule:nonzero;stroke:none"
         id="path74" /></g><g
       id="g76"
       transform="translate(167.5098,438.5749)"><path
         d="M 0,0 C 0.079,-0.021 0.161,-0.038 0.241,-0.058 0.161,-0.038 0.079,-0.021 0,0"
         style="fill:#008984;fill-opacity:1;fill-rule:nonzero;stroke:none"
         id="path78" /></g><g
       id="g80"
       transform="translate(168.8672,438.2673)"><path
         d="M 0,0 C 0.142,-0.028 0.285,-0.054 0.429,-0.079 0.285,-0.054 0.142,-0.028 0,0"
         style="fill:#008984;fill-opacity:1;fill-rule:nonzero;stroke:none"
         id="path82" /></g><g
       id="g84"
       transform="translate(164.7881,452.216)"><path
         d="M 0,0 C -0.123,-0.066 -0.239,-0.136 -0.359,-0.204 -0.239,-0.136 -0.123,-0.066 0,0"
         style="fill:#008984;fill-opacity:1;fill-rule:nonzero;stroke:none"
         id="path86" /></g><g
       id="g88"
       transform="translate(166.1323,438.9895)"><path
         d="M 0,0 C 0.011,-0.004 0.022,-0.008 0.034,-0.012 0.022,-0.008 0.011,-0.004 0,0"
         style="fill:#008984;fill-opacity:1;fill-rule:nonzero;stroke:none"
         id="path90" /></g><g
       id="g92"
       transform="translate(162.5903,450.7917)"><path
         d="M 0,0 C -0.099,-0.077 -0.202,-0.152 -0.296,-0.231 -0.202,-0.152 -0.099,-0.077 0,0"
         style="fill:#008984;fill-opacity:1;fill-rule:nonzero;stroke:none"
         id="path94" /></g><g
       id="g96"
       transform="translate(170.3423,438.0266)"><path
         d="M 0,0 C 0.143,-0.019 0.284,-0.04 0.429,-0.057 0.285,-0.04 0.143,-0.019 0,0"
         style="fill:#008984;fill-opacity:1;fill-rule:nonzero;stroke:none"
         id="path98" /></g><g
       id="g100"
       transform="translate(169.2852,453.9841)"><path
         d="M 0,0 C -0.173,-0.048 -0.343,-0.097 -0.513,-0.147 -0.343,-0.097 -0.172,-0.048 0,0"
         style="fill:#008984;fill-opacity:1;fill-rule:nonzero;stroke:none"
         id="path102" /></g><g
       id="g104"
       transform="translate(190.5029,424.0002)"><path
         d="M 0,0 C 0.569,0.813 1.111,1.673 1.619,2.583 1.847,2.994 2.076,3.403 2.29,3.832 2.646,4.547 2.356,5.415 1.642,5.772 1.638,5.773 1.634,5.776 1.629,5.778 0.917,6.125 0.057,5.834 -0.297,5.124 -0.378,4.962 -0.467,4.81 -0.551,4.65 -0.959,3.872 -1.393,3.119 -1.857,2.411 V 2.41"
         style="fill:#00514f;fill-opacity:1;fill-rule:nonzero;stroke:none"
         id="path106" /></g><g
       id="g108"
       transform="translate(182.4048,432.5827)"><path
         d="m 0,0 c -2.76,1.345 -6.087,0.198 -7.433,-2.562 -1.344,-2.759 -0.197,-6.087 2.562,-7.432 2.761,-1.345 6.088,-0.198 7.433,2.562 C 3.907,-4.672 2.76,-1.345 0,0"
         style="fill:#00514f;fill-opacity:1;fill-rule:nonzero;stroke:none"
         id="path110" /></g><g
       id="g112"
       transform="translate(171.104,435.0246)"><path
         d="m 0,0 c -1.147,-3.191 -1.649,-6.315 -1.55,-9.096 1.024,-1.045 2.137,-2.019 3.332,-2.912 C 0.916,-8.882 1.316,-4.492 3.046,-0.11 2.004,-0.125 0.989,-0.086 0,0"
         style="fill:#00514f;fill-opacity:1;fill-rule:nonzero;stroke:none"
         id="path114" /></g><g
       id="g116"
       transform="translate(188.646,426.4104)"><path
         d="m 0,0 v 0 c -2.435,-3.717 -5.545,-6.397 -8.404,-7.402 1.34,-0.498 2.697,-0.887 4.062,-1.177 2.21,1.434 4.351,3.53 6.199,6.169"
         style="fill:#00514f;fill-opacity:1;fill-rule:nonzero;stroke:none"
         id="path118" /></g><g
       id="g120"
       transform="translate(207.3662,433.5261)"><path
         d="M 0,0 C -0.196,0.453 -0.404,0.906 -0.632,1.359 -0.404,0.906 -0.196,0.453 0,0"
         style="fill:#902082;fill-opacity:1;fill-rule:nonzero;stroke:none"
         id="path122" /></g><g
       id="g124"
       transform="translate(208.9424,423.9045)"><path
         d="M 0,0 C 0.138,0.731 0.193,1.526 0.171,2.369 0.192,1.527 0.137,0.731 0,0"
         style="fill:#902082;fill-opacity:1;fill-rule:nonzero;stroke:none"
         id="path126" /></g><g
       id="g128"
       transform="translate(205.9854,431.0686)"><path
         d="m 0,0 c -1.717,2.544 -5.172,3.215 -7.717,1.498 -2.545,-1.718 -3.216,-5.173 -1.498,-7.718 1.717,-2.545 5.173,-3.215 7.717,-1.498 C 1.047,-6 1.718,-2.545 0,0"
         style="fill:#902082;fill-opacity:1;fill-rule:nonzero;stroke:none"
         id="path130" /></g><g
       id="g132"
       transform="translate(209.7495,435.2883)"><path
         d="M 0,0 V 0 C -0.419,0.899 -0.893,1.798 -1.428,2.693 -1.668,3.096 -1.909,3.499 -2.173,3.899 -2.614,4.565 -3.511,4.748 -4.177,4.308 -4.181,4.305 -4.185,4.302 -4.189,4.3 -4.845,3.857 -5.023,2.966 -4.586,2.304 -4.486,2.153 -4.398,2 -4.302,1.848 c 0.47,-0.744 0.905,-1.495 1.286,-2.251 0.229,-0.453 0.436,-0.907 0.633,-1.359 0.057,-0.134 0.11,-0.267 0.165,-0.4 0.136,-0.33 0.265,-0.66 0.384,-0.987 0.049,-0.138 0.099,-0.274 0.145,-0.411 0.126,-0.369 0.24,-0.735 0.344,-1.098 0.022,-0.077 0.047,-0.154 0.068,-0.231 0.126,-0.462 0.235,-0.918 0.324,-1.367 0.003,-0.014 0.005,-0.027 0.007,-0.041 0.084,-0.428 0.15,-0.849 0.2,-1.262 0.008,-0.068 0.015,-0.136 0.022,-0.204 0.042,-0.382 0.071,-0.757 0.083,-1.122 0.002,-0.044 0.004,-0.087 0.005,-0.13 0.022,-0.842 -0.033,-1.637 -0.171,-2.369 1.079,0.895 2.099,1.872 3.051,2.93 C 2.106,-5.823 1.362,-2.92 0,0"
         style="fill:#902082;fill-opacity:1;fill-rule:nonzero;stroke:none"
         id="path134" /></g><g
       id="g136"
       transform="translate(200.3525,420.031)"><path
         d="m 0,0 c -0.264,0.107 -0.53,0.223 -0.797,0.352 -0.128,0.061 -0.257,0.125 -0.385,0.191 -0.269,0.139 -0.539,0.29 -0.809,0.448 -0.114,0.068 -0.229,0.131 -0.343,0.202 -0.382,0.236 -0.764,0.487 -1.145,0.763 0,0 -10e-4,0 -10e-4,0.001 -0.379,0.273 -0.755,0.57 -1.128,0.88 -0.116,0.095 -0.23,0.198 -0.344,0.296 -0.262,0.226 -0.522,0.459 -0.779,0.702 -0.128,0.121 -0.256,0.244 -0.383,0.369 -0.254,0.25 -0.504,0.509 -0.752,0.775 -0.111,0.12 -0.223,0.235 -0.333,0.357 C -7.55,5.728 -7.896,6.13 -8.231,6.552 -8.739,5.642 -9.28,4.782 -9.85,3.969 c 2.187,-2.584 4.636,-4.579 7.09,-5.884 1.431,0.369 2.832,0.846 4.192,1.426 -0.36,0.093 -0.726,0.215 -1.096,0.353 C 0.225,-0.095 0.112,-0.045 0,0"
         style="fill:#902082;fill-opacity:1;fill-rule:nonzero;stroke:none"
         id="path138" /></g><g
       id="g140"
       transform="translate(219.0532,451.2092)"><path
         d="M 0,0 C -0.564,0.484 -1.224,0.93 -1.964,1.332 -1.226,0.93 -0.564,0.484 0,0"
         style="fill:#8d044f;fill-opacity:1;fill-rule:nonzero;stroke:none"
         id="path142" /></g><g
       id="g144"
       transform="translate(208.4395,454.7868)"><path
         d="M 0,0 C 0.506,-0.029 1.002,-0.075 1.492,-0.132 1.002,-0.076 0.506,-0.029 0,0"
         style="fill:#8d044f;fill-opacity:1;fill-rule:nonzero;stroke:none"
         id="path146" /></g><g
       id="g148"
       transform="translate(217.3047,447.0749)"><path
         d="M 0,0 C -0.215,3.063 -2.872,5.371 -5.935,5.156 -8.997,4.94 -11.306,2.283 -11.09,-0.779 -10.875,-3.842 -8.218,-6.15 -5.156,-5.935 -2.093,-5.72 0.215,-3.063 0,0"
         style="fill:#8d044f;fill-opacity:1;fill-rule:nonzero;stroke:none"
         id="path150" /></g><g
       id="g152"
       transform="translate(209.9316,454.655)"><path
         d="m 0,0 c 0.145,-0.017 0.287,-0.038 0.43,-0.057 0.354,-0.047 0.704,-0.1 1.048,-0.162 0.143,-0.025 0.285,-0.051 0.426,-0.078 0.382,-0.076 0.757,-0.16 1.123,-0.252 0.078,-0.019 0.159,-0.036 0.236,-0.056 0.462,-0.122 0.912,-0.256 1.345,-0.403 0.014,-0.005 0.026,-0.01 0.04,-0.015 0.412,-0.141 0.808,-0.294 1.19,-0.457 0.065,-0.027 0.128,-0.056 0.191,-0.084 0.35,-0.154 0.688,-0.316 1.01,-0.487 0.039,-0.021 0.079,-0.042 0.118,-0.063 0.74,-0.402 1.4,-0.847 1.965,-1.332 C 8.882,-2.051 8.538,-0.677 8.1,0.666 5.754,1.86 2.872,2.665 -0.333,2.945 -1.323,3.032 -2.338,3.071 -3.38,3.055 -3.85,3.048 -4.319,3.041 -4.797,3.012 -5.594,2.964 -6.202,2.279 -6.153,1.481 c 0,-0.004 10e-4,-0.009 10e-4,-0.014 0.055,-0.79 0.737,-1.389 1.529,-1.342 0.181,0.012 0.358,0.011 0.538,0.018 0.878,0.036 1.747,0.037 2.593,-0.011 0,0 0.548,-0.023 0,0 v 0 C -0.986,0.103 -0.49,0.056 0,0"
         style="fill:#8d044f;fill-opacity:1;fill-rule:nonzero;stroke:none"
         id="path154" /></g><g
       id="g156"
       transform="translate(219.252,442.8288)"><path
         d="M 0,0 C -0.261,-0.264 -0.549,-0.521 -0.854,-0.772 -0.945,-0.848 -1.044,-0.92 -1.14,-0.995 -1.365,-1.17 -1.598,-1.343 -1.843,-1.51 -1.96,-1.59 -2.079,-1.669 -2.201,-1.748 -2.455,-1.911 -2.721,-2.069 -2.993,-2.224 -3.109,-2.29 -3.221,-2.357 -3.34,-2.421 -3.735,-2.633 -4.143,-2.838 -4.571,-3.03 -4.575,-3.032 -4.58,-3.033 -4.584,-3.035 -5.006,-3.225 -5.448,-3.4 -5.899,-3.568 -6.041,-3.62 -6.187,-3.668 -6.331,-3.718 -6.657,-3.832 -6.988,-3.94 -7.327,-4.042 -7.496,-4.092 -7.665,-4.141 -7.836,-4.188 -8.18,-4.283 -8.53,-4.37 -8.884,-4.452 -9.043,-4.489 -9.2,-4.528 -9.361,-4.562 c -0.514,-0.108 -1.036,-0.207 -1.569,-0.286 0.534,-0.894 1.009,-1.793 1.428,-2.693 3.328,0.601 6.277,1.723 8.633,3.193 C -0.465,-2.908 -0.175,-1.456 0,0"
         style="fill:#8d044f;fill-opacity:1;fill-rule:nonzero;stroke:none"
         id="path158" /></g><g
       id="g160"
       transform="translate(209.8906,438.2668)"><path
         d="M 0,0 C -0.514,-0.108 -1.036,-0.207 -1.569,-0.286 -1.036,-0.207 -0.514,-0.108 0,0"
         style="fill:#8d044f;fill-opacity:1;fill-rule:nonzero;stroke:none"
         id="path162" /></g><g
       id="g164"
       transform="translate(203.168,470.0363)"><path
         d="m 0,0 c -2.76,1.345 -6.087,0.198 -7.433,-2.562 -1.344,-2.76 -0.197,-6.087 2.562,-7.432 2.76,-1.345 6.088,-0.198 7.433,2.561 C 3.907,-4.673 2.76,-1.345 0,0"
         style="fill:#e9500e;fill-opacity:1;fill-rule:nonzero;stroke:none"
         id="path166" /></g><g
       id="g168"
       transform="translate(211.1479,466.696)"><path
         d="m 0,0 c -1.024,1.045 -2.137,2.019 -3.332,2.913 10e-4,-0.002 10e-4,-0.003 10e-4,-0.004 0.099,-0.356 0.176,-0.733 0.242,-1.12 0.021,-0.122 0.035,-0.248 0.052,-0.372 0.038,-0.278 0.071,-0.562 0.093,-0.853 0.011,-0.146 0.02,-0.292 0.027,-0.441 0.015,-0.296 0.019,-0.6 0.017,-0.908 -10e-4,-0.138 10e-4,-0.274 -0.003,-0.414 -0.014,-0.447 -0.04,-0.901 -0.087,-1.366 0,-10e-4 -10e-4,-0.002 -10e-4,-0.003 -0.047,-0.465 -0.116,-0.939 -0.197,-1.417 -0.026,-0.15 -0.058,-0.301 -0.087,-0.452 -0.064,-0.338 -0.136,-0.679 -0.217,-1.022 -0.041,-0.172 -0.083,-0.344 -0.128,-0.517 -0.089,-0.344 -0.19,-0.691 -0.296,-1.038 -0.047,-0.157 -0.092,-0.313 -0.143,-0.47 -0.164,-0.499 -0.339,-1 -0.537,-1.502 1.042,0.016 2.057,-0.023 3.046,-0.11 C -0.403,-5.905 0.1,-2.781 0,0"
         style="fill:#e9500e;fill-opacity:1;fill-rule:nonzero;stroke:none"
         id="path170" /></g><g
       id="g172"
       transform="translate(198.3237,472.5813)"><path
         d="m 0,0 c 0.719,0.44 1.435,0.789 2.136,1.036 -1.34,0.497 -2.697,0.886 -4.062,1.176 -2.21,-1.434 -4.35,-3.53 -6.199,-6.169 -0.569,-0.813 -1.111,-1.672 -1.618,-2.583 -0.229,-0.41 -0.458,-0.82 -0.672,-1.249 -0.356,-0.714 -0.066,-1.583 0.648,-1.939 0.004,-0.002 0.009,-0.004 0.013,-0.006 0.712,-0.347 1.572,-0.057 1.927,0.653 0.08,0.163 0.17,0.315 0.253,0.475 0.408,0.778 0.842,1.53 1.306,2.239 v 0 c 0.002,0.003 0.003,0.005 0.005,0.007 0.276,0.421 0.563,0.825 0.854,1.218 0.088,0.119 0.179,0.232 0.268,0.348 0.217,0.282 0.437,0.557 0.661,0.823 0.094,0.112 0.188,0.222 0.283,0.331 0.256,0.293 0.515,0.576 0.778,0.847 0.056,0.057 0.111,0.118 0.167,0.175 0.336,0.339 0.677,0.662 1.022,0.964 0.009,0.008 0.019,0.015 0.028,0.024 0.329,0.287 0.662,0.555 0.996,0.806 0.055,0.041 0.11,0.081 0.165,0.121 0.31,0.227 0.62,0.439 0.929,0.632 C -0.074,-0.047 -0.037,-0.022 0,0"
         style="fill:#e9500e;fill-opacity:1;fill-rule:nonzero;stroke:none"
         id="path174" /></g><g
       id="g176"
       transform="translate(200.46,473.6169)"><path
         d="M 0,0 C -0.702,-0.247 -1.417,-0.596 -2.136,-1.036 -1.418,-0.597 -0.702,-0.247 0,0"
         style="fill:#e9500e;fill-opacity:1;fill-rule:nonzero;stroke:none"
         id="path178" /></g><g
       id="g180"
       transform="translate(171.7588,468.719)"><path
         d="M 0,0 C -0.137,-0.73 -0.192,-1.523 -0.171,-2.365 -0.192,-1.524 -0.137,-0.73 0,0"
         style="fill:#a20f2b;fill-opacity:1;fill-rule:nonzero;stroke:none"
         id="path182" /></g><g
       id="g184"
       transform="translate(175.5381,455.0324)"><path
         d="M 0,0 C -0.1,0.151 -0.187,0.305 -0.283,0.457 -0.754,1.2 -1.188,1.951 -1.57,2.708 -1.572,2.711 -1.573,2.714 -1.575,2.717 -1.801,3.167 -2.007,3.616 -2.202,4.065 -2.26,4.2 -2.313,4.334 -2.369,4.469 -2.504,4.798 -2.632,5.125 -2.75,5.452 -2.801,5.59 -2.85,5.729 -2.897,5.866 -3.022,6.233 -3.137,6.598 -3.24,6.959 -3.262,7.038 -3.288,7.117 -3.309,7.194 -3.435,7.655 -3.543,8.111 -3.633,8.559 -3.636,8.575 -3.638,8.59 -3.641,8.606 -3.724,9.031 -3.789,9.449 -3.839,9.86 c -0.009,0.071 -0.016,0.141 -0.023,0.211 -0.042,0.379 -0.07,0.751 -0.082,1.114 -0.002,0.045 -0.005,0.091 -0.006,0.137 -0.022,0.841 0.034,1.634 0.171,2.365 0,0 0,0.001 0,0.001 -1.079,-0.895 -2.099,-1.872 -3.05,-2.93 0.137,-2.631 0.882,-5.533 2.243,-8.453 0.419,-0.9 0.893,-1.799 1.428,-2.693 0.241,-0.404 0.481,-0.807 0.746,-1.206 0.44,-0.666 1.337,-0.85 2.003,-0.409 0.004,0.002 0.008,0.005 0.012,0.008 C 0.259,-1.552 0.437,-0.662 0,0"
         style="fill:#a20f2b;fill-opacity:1;fill-rule:nonzero;stroke:none"
         id="path186" /></g><g
       id="g188"
       transform="translate(183.9316,467.7766)"><path
         d="m 0,0 c -1.718,2.544 -5.173,3.215 -7.718,1.498 -2.545,-1.718 -3.215,-5.173 -1.497,-7.718 1.717,-2.545 5.173,-3.215 7.717,-1.498 C 1.047,-6 1.717,-2.545 0,0"
         style="fill:#a20f2b;fill-opacity:1;fill-rule:nonzero;stroke:none"
         id="path190" /></g><g
       id="g192"
       transform="translate(183.1099,474.509)"><path
         d="m 0,0 c -1.432,-0.369 -2.833,-0.846 -4.192,-1.426 0.001,0 0.001,0 0.002,0 0.358,-0.094 0.725,-0.216 1.094,-0.353 0.111,-0.041 0.222,-0.09 0.334,-0.136 0.265,-0.107 0.532,-0.224 0.801,-0.353 0.127,-0.061 0.253,-0.123 0.381,-0.189 0.27,-0.139 0.541,-0.291 0.813,-0.451 0.114,-0.067 0.226,-0.129 0.34,-0.199 0.382,-0.237 0.764,-0.488 1.146,-0.763 L 0.72,-3.872 c 0.378,-0.273 0.754,-0.569 1.127,-0.879 0.117,-0.097 0.231,-0.199 0.346,-0.299 0.262,-0.225 0.521,-0.457 0.778,-0.7 0.128,-0.121 0.255,-0.243 0.382,-0.368 0.254,-0.251 0.504,-0.51 0.752,-0.777 0.112,-0.119 0.224,-0.234 0.333,-0.356 0.352,-0.392 0.698,-0.794 1.033,-1.216 0.507,0.91 1.049,1.77 1.618,2.583 C 4.903,-3.3 2.454,-1.305 0,0"
         style="fill:#a20f2b;fill-opacity:1;fill-rule:nonzero;stroke:none"
         id="path194" /></g></g></g><text
   style="font-variant:normal;font-weight:bold;font-stretch:normal;font-size:20px;font-family:'Futura Md BT';-inkscape-font-specification:FuturaBT-Bold;writing-mode:lr-tb;fill:#902082;fill-opacity:1;fill-rule:nonzero;stroke:none;stroke-width:1.33333325"
   id="text198"
   x="93.015388"
   y="28.045786"><tspan
     x="93.015388 104.75538 117.49537 130.81535 144.13535 156.71533 165.77539 172.95532 179.33537 192.43538 205.59538 225.09538 238.83537 248.31535 255.09538"
     y="28.045786"
     id="tspan196"
     style="stroke-width:1.33333325">Support Cumbria</tspan></text>

</svg>