<?xml version="1.0" encoding="UTF-8" standalone="no"?>
<svg
   xmlns:svg="http://www.w3.org/2000/svg"
   xmlns="http://www.w3.org/2000/svg"
   id="svg7945"
   version="1.1"
   viewBox="0 0 29.633333 29.633509"
   height="29.633509mm"
   width="29.633333mm">
  <g
     transform="translate(-166.6119,-133.26063)"
     id="layer1">
    <g
       transform="matrix(0.35277777,0,0,-0.35277777,154.55643,313.13478)"
       id="g6024">
      <g
         id="g4704"
         transform="translate(104,425.879)">
        <path
           d="m 0,0 h -55.654 c -7.827,0 -14.173,6.345 -14.173,14.173 v 55.654 c 0,7.827 6.346,14.173 14.173,14.173 H 0 C 7.828,84 14.173,77.654 14.173,69.827 V 14.173 C 14.173,6.345 7.828,0 0,0"
           style="fill:#871d91;fill-opacity:1;fill-rule:nonzero;stroke:none"
           id="path4706" />
      </g>
      <g
         id="g4708"
         transform="translate(48.3389,426.879)">
        <path
           d="M 0,0 C -7.259,0 -13.166,5.906 -13.166,13.166 V 68.827 C -13.166,76.09 -7.256,82 0.007,82 H 45.458 V 0 Z"
           style="fill:#ffffff;fill-opacity:1;fill-rule:nonzero;stroke:none"
           id="path4710" />
      </g>
      <g
         id="g4712"
         transform="translate(94.7964,509.8795)">
        <path
           d="m 0,0 h -46.45 c -7.828,0 -14.173,-6.346 -14.173,-14.174 v -55.661 c 0,-7.824 6.342,-14.165 14.165,-14.165 H 0 Z m -2,-2 v -80 h -44.458 c -6.708,0 -12.165,5.457 -12.165,12.165 v 55.661 c 0,6.713 5.46,12.174 12.173,12.174 L -2,-2"
           style="fill:#871d91;fill-opacity:1;fill-rule:nonzero;stroke:none"
           id="path4714" />
      </g>
      <g
         id="g4716"
         transform="translate(79.9624,456.0797)">
        <path
           d="M 0,0 C 0,0 0.506,-5.598 6.524,-3.431 L 2.959,2.479 C 2.959,2.479 2.004,0.019 0,0"
           style="fill:#ffffff;fill-opacity:1;fill-rule:nonzero;stroke:none"
           id="path4718" />
      </g>
      <g
         id="g4720"
         transform="translate(79.9624,456.0797)">
        <path
           d="M 0,0 C 0,0 0.506,-5.598 6.524,-3.431 L 2.959,2.479 C 2.959,2.479 2.004,0.019 0,0 Z"
           style="fill:none;stroke:#871d91;stroke-width:1.5;stroke-linecap:butt;stroke-linejoin:miter;stroke-miterlimit:10;stroke-dasharray:none;stroke-opacity:1"
           id="path4722" />
      </g>
      <g
         id="g4724"
         transform="translate(95.7051,454.4586)">
        <path
           d="M 0,0 -14.99,14.99 -2.928,27.052 12.063,12.063 Z"
           style="fill:#ffffff;fill-opacity:1;fill-rule:nonzero;stroke:none"
           id="path4726" />
      </g>
      <g
         id="g4728"
         transform="translate(79.8232,456.6002)">
        <path
           d="M 0,0 C -1.366,0.195 -2.29,0.727 -2.805,1.623 -3.549,2.916 -3.286,4.697 -3.002,5.806 L 2.008,1.49 C 1.488,0.152 0.513,-0.003 0.09,-0.003 Z"
           style="fill:#ffffff;fill-opacity:1;fill-rule:nonzero;stroke:none"
           id="path4730" />
      </g>
      <g
         id="g4732"
         transform="translate(76.4487,463.7164)">
        <path
           d="m 0,0 c 0,0 -2.855,-6.985 3.289,-7.861 0,0 0.065,-0.009 0.175,-0.009 0.539,0 2.177,0.195 2.785,2.488 z M 0.872,-2.73 4.449,-5.812 C 4.148,-6.25 3.771,-6.366 3.45,-6.369 2.337,-6.201 1.608,-5.793 1.221,-5.123 0.836,-4.455 0.785,-3.564 0.872,-2.73"
           style="fill:#871d91;fill-opacity:1;fill-rule:nonzero;stroke:none"
           id="path4734" />
      </g>
      <g
         id="g4736"
         transform="translate(81.0791,476.8336)">
        <path
           d="m 0,0 11.506,5.585 c 0,0 7.862,-1.159 12.266,-1.484 1.145,-0.084 2.231,-0.583 2.968,-1.463 2.788,-3.33 4.689,-10.755 5.151,-15.263 l -12.713,3.873 c 0,0 -0.568,2.651 0.077,4.268 0,0 -5.032,0.763 -7.802,1.261 -0.204,0.037 -0.405,0.02 -0.6,-0.05 -1.302,-0.471 -6.693,-2.265 -9.615,-0.84 0,0 -1.996,1.719 -1.84,3.309 C -0.567,-0.452 -0.318,-0.155 0,0"
           style="fill:#ffffff;fill-opacity:1;fill-rule:nonzero;stroke:none"
           id="path4738" />
      </g>
      <g
         id="g4740"
         transform="translate(81.0791,476.8336)">
        <path
           d="m 0,0 11.506,5.585 c 0,0 7.862,-1.159 12.266,-1.484 1.145,-0.084 2.231,-0.583 2.968,-1.463 2.788,-3.33 4.689,-10.755 5.151,-15.263 l -12.713,3.873 c 0,0 -0.568,2.651 0.077,4.268 0,0 -5.032,0.763 -7.802,1.261 -0.204,0.037 -0.405,0.02 -0.6,-0.05 -1.302,-0.471 -6.693,-2.265 -9.615,-0.84 0,0 -1.996,1.719 -1.84,3.309 C -0.567,-0.452 -0.318,-0.155 0,0 Z"
           style="fill:none;stroke:#871d91;stroke-width:1.5;stroke-linecap:butt;stroke-linejoin:miter;stroke-miterlimit:10;stroke-dasharray:none;stroke-opacity:1"
           id="path4742" />
      </g>
      <g
         id="g4744"
         transform="translate(72.7676,468.4655)">
        <path
           d="m 0,0 c -0.267,0.046 -0.416,0.192 -0.493,0.306 -0.176,0.258 -0.12,0.535 -0.089,0.684 l 0.567,4.301 c 0.11,0.736 0.516,0.833 0.75,0.833 H 0.787 L 0.884,6.11 44.745,-1.582 v -6.36 z"
           style="fill:#ffffff;fill-opacity:1;fill-rule:nonzero;stroke:none"
           id="path4746" />
      </g>
      <g
         id="g4748"
         transform="translate(73.5029,475.1764)">
        <path
           d="m 0,0 c -0.189,0 -1.143,-0.06 -1.317,-1.245 l -0.005,-0.026 -0.011,-0.073 -0.554,-4.229 c -0.048,-0.235 -0.135,-0.709 0.173,-1.162 0.2,-0.294 0.512,-0.491 0.879,-0.555 l 44.052,-7.819 1.38,-0.245 v 1.401 5.167 0.986 L 43.625,-7.629 0.25,-0.022 0.149,-0.004 Z m 0,-1.174 c 0.014,0 0.03,-0.002 0.047,-0.005 l 43.375,-7.607 v -5.167 l -44.055,7.82 c -0.191,0.033 -0.128,0.182 -0.094,0.373 l 0.559,4.264 c 0.03,0.173 0.025,0.322 0.168,0.322"
           style="fill:#871d91;fill-opacity:1;fill-rule:nonzero;stroke:none"
           id="path4750" />
      </g>
      <g
         id="g4752"
         transform="translate(98.3057,463.7164)">
        <path
           d="m 0,0 14.245,-2.41 c 0,0 -0.086,-10.907 4.25,-16.822 1.373,-8.774 -3.758,-15.71 -9.125,-16.511 l -7.097,12.209 c 0,0 -4.982,2.082 -6.945,4.182 0,0 -5.946,5.631 -9.166,10.527 -1.509,2.295 -3.348,4.34 -5.417,6.144 -1.204,1.05 -2.468,2.344 -3.387,3.771 -0.564,0.877 -0.891,1.903 -0.877,2.947 0.023,1.758 0.933,3.851 5.946,1.458 0,0 1.736,-0.823 4.948,-3.067 1.057,-0.739 1.974,-1.661 3.117,-2.261 2.565,-1.344 6.514,-2.82 8.6,-3.897 z"
           style="fill:#ffffff;fill-opacity:1;fill-rule:nonzero;stroke:none"
           id="path4754" />
      </g>
      <g
         id="g4756"
         transform="translate(98.3057,463.7164)">
        <path
           d="m 0,0 14.245,-2.41 c 0,0 -0.086,-10.907 4.25,-16.822 1.373,-8.774 -3.758,-15.71 -9.125,-16.511 l -7.097,12.209 c 0,0 -4.982,2.082 -6.945,4.182 0,0 -5.946,5.631 -9.166,10.527 -1.509,2.295 -3.348,4.34 -5.417,6.144 -1.204,1.05 -2.468,2.344 -3.387,3.771 -0.564,0.877 -0.891,1.903 -0.877,2.947 0.023,1.758 0.933,3.851 5.946,1.458 0,0 1.736,-0.823 4.948,-3.067 1.057,-0.739 1.974,-1.661 3.117,-2.261 2.565,-1.344 6.514,-2.82 8.6,-3.897 z"
           style="fill:none;stroke:#871d91;stroke-width:1.5;stroke-linecap:butt;stroke-linejoin:miter;stroke-miterlimit:10;stroke-dasharray:none;stroke-opacity:1"
           id="path4758" />
      </g>
      <g
         id="g4760"
         transform="translate(65.8193,472.9508)">
        <path
           d="m 0,0 6.437,-4.299 c 0.127,-0.069 0.284,0.016 0.294,0.161 L 7.717,1.437 C 7.727,1.574 7.6,1.68 7.468,1.645 Z"
           style="fill:#ffffff;fill-opacity:1;fill-rule:nonzero;stroke:none"
           id="path4762" />
      </g>
      <g
         id="g4764"
         transform="translate(65.8193,472.9508)">
        <path
           d="m 0,0 6.437,-4.299 c 0.127,-0.069 0.284,0.016 0.294,0.161 L 7.717,1.437 C 7.727,1.574 7.6,1.68 7.468,1.645 Z"
           style="fill:none;stroke:#871d91;stroke-width:1.17799997;stroke-linecap:butt;stroke-linejoin:miter;stroke-miterlimit:10;stroke-dasharray:none;stroke-opacity:1"
           id="path4766" />
      </g>
      <g
         id="g4768"
         transform="translate(45.8647,495.671)">
        <path
           d="M 0,0 H 35.906"
           style="fill:none;stroke:#871d91;stroke-width:2;stroke-linecap:round;stroke-linejoin:round;stroke-miterlimit:10;stroke-dasharray:none;stroke-opacity:1"
           id="path4770" />
      </g>
      <g
         id="g4772"
         transform="translate(60.8174,472.6959)">
        <path
           d="M 0,0 H -14.953"
           style="fill:none;stroke:#871d91;stroke-width:2;stroke-linecap:round;stroke-linejoin:round;stroke-miterlimit:10;stroke-dasharray:none;stroke-opacity:1"
           id="path4774" />
      </g>
      <g
         id="g4792"
         transform="translate(45.8647,484.1832)">
        <path
           d="M 0,0 H 35.906"
           style="fill:none;stroke:#871d91;stroke-width:2;stroke-linecap:round;stroke-linejoin:round;stroke-miterlimit:10;stroke-dasharray:none;stroke-opacity:1"
           id="path4794" />
      </g>
    </g>
  </g>
</svg>
