<?xml version="1.0" encoding="UTF-8" standalone="no"?>
<svg
   xmlns:svg="http://www.w3.org/2000/svg"
   xmlns="http://www.w3.org/2000/svg"
   id="svg6097"
   version="1.1"
   viewBox="0 0 29.633333 29.633333"
   height="29.633333mm"
   width="29.633333mm">
  <g
     transform="translate(-65.314286,-110.58214)"
     id="layer1">
    <g
       transform="matrix(0.35277777,0,0,-0.35277777,52.594249,148.45206)"
       id="g6072">
      <g
         id="g4596"
         transform="translate(105.8838,23.3478)">
        <path
           d="m 0,0 h -55.653 c -7.828,0 -14.174,6.346 -14.174,14.173 v 55.654 c 0,7.827 6.346,14.173 14.174,14.173 H 0 C 7.828,84 14.173,77.654 14.173,69.827 V 14.173 C 14.173,6.346 7.828,0 0,0"
           style="fill:#328d85;fill-opacity:1;fill-rule:nonzero;stroke:none"
           id="path4598" />
      </g>
      <g
         id="g4620"
         transform="translate(52.0254,73.9904)">
        <path
           d="m 0,0 h 41.444 c 1.915,0 3.468,-1.226 3.468,-2.736 v -32.45 c 0,-1.511 -1.553,-2.736 -3.468,-2.736 H 0 c -1.916,0 -3.468,1.225 -3.468,2.736 v 32.45 C -3.468,-1.226 -1.916,0 0,0"
           style="fill:#ffffff;fill-opacity:1;fill-rule:nonzero;stroke:none"
           id="path4622" />
      </g>
      <g
         id="g4624"
         transform="translate(52.0254,73.9904)">
        <path
           d="m 0,0 h 41.444 c 1.915,0 3.468,-1.226 3.468,-2.736 v -32.45 c 0,-1.511 -1.553,-2.736 -3.468,-2.736 H 0 c -1.916,0 -3.468,1.225 -3.468,2.736 v 32.45 C -3.468,-1.226 -1.916,0 0,0 Z"
           style="fill:none;stroke:#ffffff;stroke-width:1.63800001;stroke-linecap:butt;stroke-linejoin:miter;stroke-miterlimit:10;stroke-dasharray:none;stroke-opacity:1"
           id="path4626" />
      </g>
      <g
         id="g4628"
         transform="translate(46.9136,69.087)">
        <path
           d="m 0,0 c -2.333,0 -4.232,1.898 -4.232,4.232 v 5.172 c 0,2.334 1.899,4.233 4.232,4.233 h 51.667 c 2.334,0 4.232,-1.899 4.232,-4.233 V 4.232 C 55.899,1.898 54.001,0 51.667,0 Z"
           style="fill:#ffffff;fill-opacity:1;fill-rule:nonzero;stroke:none"
           id="path4630" />
      </g>
      <g
         id="g4632"
         transform="translate(98.5811,84.1876)">
        <path
           d="m 0,0 h -51.667 c -3.142,0 -5.697,-2.556 -5.697,-5.696 v -5.172 c 0,-3.142 2.555,-5.697 5.697,-5.697 H 0 c 3.141,0 5.696,2.555 5.696,5.697 v 5.172 C 5.696,-2.556 3.141,0 0,0 m 0,-2.929 c 1.528,0 2.768,-1.239 2.768,-2.767 v -5.172 c 0,-1.529 -1.24,-2.768 -2.768,-2.768 h -51.667 c -1.529,0 -2.768,1.239 -2.768,2.768 v 5.172 c 0,1.528 1.239,2.767 2.768,2.767 H 0"
           style="fill:#328d85;fill-opacity:1;fill-rule:nonzero;stroke:none"
           id="path4634" />
      </g>
      <g
         id="g4636"
         transform="translate(80.8018,92.7618)">
        <path
           d="m 0,0 c 0.774,-0.001 1.401,-0.243 1.955,-0.771 1.107,-0.933 1.697,-2.516 1.439,-4.017 -0.111,-1.38 -0.997,-2.679 -2.62,-3.937 -2.079,-1.525 -4.513,-2.823 -7.566,-4.067 -0.572,-0.233 -0.866,0.189 -0.871,0.86 -0.012,1.591 -0.007,3.232 0.019,4.66 0.021,1.149 0.425,2.251 1.162,3.134 C -5.073,-2.446 -2.108,0.003 0,0 m -9.808,-12.053 c -0.023,-0.207 -0.112,-0.764 -0.251,-0.906 -0.212,-0.217 -0.516,0.075 -0.793,0.171 -2.916,1.012 -5.177,1.74 -7.038,3.13 -1.144,0.852 -1.807,2.151 -1.771,3.53 0.037,1.38 0.702,2.801 1.697,3.652 0.664,0.569 1.439,0.893 2.214,0.893 0.405,0 0.848,-0.081 1.253,-0.284 1.181,-0.487 2.582,-1.501 3.8,-2.759 0.143,-0.158 0.274,-0.32 0.406,-0.489 0.549,-1.318 0.632,-5.638 0.483,-6.938 M 0.147,3.125 C -1.033,3.125 -2.14,2.841 -3.099,2.354 -4.98,1.299 -6.529,0 -8.004,-1.704 -8.299,-2.069 -8.595,-2.435 -8.89,-2.881 c -0.037,0.04 -0.037,0.081 -0.073,0.121 -1.365,1.705 -2.767,2.882 -4.537,3.775 -0.701,0.365 -1.476,0.527 -2.324,0.527 -1.439,0 -2.841,-0.527 -3.947,-1.502 -1.697,-1.542 -2.73,-3.814 -2.693,-6.168 0.037,-2.393 1.402,-4.747 3.283,-5.803 2.324,-1.42 5.742,-2.572 8.951,-2.897 0,0 1.808,0.417 3.393,0.244 3.726,0.567 6.21,2.004 8.976,3.668 1.07,0.649 3.578,2.476 4.095,5.682 0.479,2.555 -0.326,5.633 -2.398,7.1 C 2.06,3.125 0.147,3.125 0.147,3.125"
           style="fill:#ffffff;fill-opacity:1;fill-rule:nonzero;stroke:none"
           id="path4638" />
      </g>
      <g
         id="g4640"
         transform="translate(80.8018,92.7618)">
        <path
           d="m 0,0 c 0.774,-0.001 1.401,-0.243 1.955,-0.771 1.107,-0.933 1.697,-2.516 1.439,-4.017 -0.111,-1.38 -0.997,-2.679 -2.62,-3.937 -2.079,-1.525 -4.513,-2.823 -7.566,-4.067 -0.572,-0.233 -0.866,0.189 -0.871,0.86 -0.012,1.591 -0.007,3.232 0.019,4.66 0.021,1.149 0.425,2.251 1.162,3.134 C -5.073,-2.446 -2.108,0.003 0,0 Z m -9.808,-12.053 c -0.023,-0.207 -0.112,-0.764 -0.251,-0.906 -0.212,-0.217 -0.516,0.075 -0.793,0.171 -2.916,1.012 -5.177,1.74 -7.038,3.13 -1.144,0.852 -1.807,2.151 -1.771,3.53 0.037,1.38 0.702,2.801 1.697,3.652 0.664,0.569 1.439,0.893 2.214,0.893 0.405,0 0.848,-0.081 1.253,-0.284 1.181,-0.487 2.582,-1.501 3.8,-2.759 0.143,-0.158 0.274,-0.32 0.406,-0.489 0.549,-1.318 0.632,-5.638 0.483,-6.938 z M 0.147,3.125 C -1.033,3.125 -2.14,2.841 -3.099,2.354 -4.98,1.299 -6.529,0 -8.004,-1.704 -8.299,-2.069 -8.595,-2.435 -8.89,-2.881 c -0.037,0.04 -0.037,0.081 -0.073,0.121 -1.365,1.705 -2.767,2.882 -4.537,3.775 -0.701,0.365 -1.476,0.527 -2.324,0.527 -1.439,0 -2.841,-0.527 -3.947,-1.502 -1.697,-1.542 -2.73,-3.814 -2.693,-6.168 0.037,-2.393 1.402,-4.747 3.283,-5.803 2.324,-1.42 5.742,-2.572 8.951,-2.897 0,0 1.808,0.417 3.393,0.244 3.726,0.567 6.21,2.004 8.976,3.668 1.07,0.649 3.578,2.476 4.095,5.682 0.479,2.555 -0.326,5.633 -2.398,7.1 C 2.06,3.125 0.147,3.125 0.147,3.125 Z"
           style="fill:none;stroke:#ffffff;stroke-width:0.24699999;stroke-linecap:butt;stroke-linejoin:miter;stroke-miterlimit:10;stroke-dasharray:none;stroke-opacity:1"
           id="path4642" />
      </g>
      <g
         id="g4644"
         transform="translate(72.7471,33.6124)">
        <path
           d="M 0,0 V 47.811"
           style="fill:none;stroke:#328d85;stroke-width:4.88199997;stroke-linecap:butt;stroke-linejoin:miter;stroke-miterlimit:10;stroke-dasharray:none;stroke-opacity:1"
           id="path4646" />
      </g>
      <g
         id="g4776"
         transform="translate(89.1636,30.8898)">
        <path
           d="M 0,0 -1.717,14.951 18.894,60.289 18.093,18.521 12.853,7.182 Z"
           style="fill:#328d85;fill-opacity:1;fill-rule:nonzero;stroke:none"
           id="path4778" />
      </g>
      <g
         id="g4780"
         transform="translate(89.1636,30.8898)">
        <path
           d="M 0,0 -1.717,14.951 18.894,60.289 18.093,18.521 12.853,7.182 Z"
           style="fill:none;stroke:#328d85;stroke-width:2;stroke-linecap:butt;stroke-linejoin:miter;stroke-miterlimit:10;stroke-dasharray:none;stroke-opacity:1"
           id="path4782" />
      </g>
      <g
         id="g4784"
         transform="translate(90.2842,45.6368)">
        <path
           d="m 0,0 0.894,-9.878 1.238,-0.447 6.538,3.585 13.199,30.294 -9.546,4.157 z"
           style="fill:#328d85;fill-opacity:1;fill-rule:nonzero;stroke:none"
           id="path4786" />
      </g>
      <g
         id="g4788"
         transform="translate(100.085,41.4913)">
        <path
           d="m 0,0 -9.069,4.331 12.591,27.525 8.925,-3.747 z m -5.866,-4.846 -2.798,1.435 -0.621,5.576 7.911,-3.982 z M 3.104,34.625 -10.921,3.807 -9.406,-8.866 1.07,-1.809 14.862,29.624 Z"
           style="fill:#ffffff;fill-opacity:1;fill-rule:nonzero;stroke:none"
           id="path4790" />
      </g>
    </g>
  </g>
</svg>
