<?xml version="1.0" encoding="UTF-8" standalone="no"?>
<svg
   xmlns:svg="http://www.w3.org/2000/svg"
   xmlns="http://www.w3.org/2000/svg"
   id="svg8"
   version="1.1"
   viewBox="0 0 29.633333 31.313507"
   height="31.313507mm"
   width="29.633333mm">
  <g
     transform="translate(-83.477714,-101.96501)"
     id="layer1">
    <g
       id="g4526"
       transform="matrix(0.35277777,0,0,-0.35277777,12.796363,200.75852)">
      <g
         transform="translate(-535.71431,-139.28572)"
         id="g4584">
        <g
           transform="translate(700.7143,38.571428)"
           id="g6036">
          <g
             id="g4592"
             transform="translate(105.1836,296.7589)">
            <path
               d="m 0,0 h -55.653 c -7.828,0 -14.174,6.346 -14.174,14.174 v 55.653 c 0,7.827 6.346,14.173 14.174,14.173 H 0 C 7.828,84 14.173,77.654 14.173,69.827 V 14.174 C 14.173,6.346 7.828,0 0,0"
               style="fill:#871d91;fill-opacity:1;fill-rule:nonzero;stroke:none"
               id="path4594" />
          </g>
          <g
             id="g4612"
             transform="translate(107.9004,291.9962)">
            <path
               d="m 0,0 -0.184,34.772 c 0,0 2.45,2.511 3.98,10.042 l 4.593,9.675 c 0.183,0.367 0.122,0.796 -0.184,1.102 -0.429,0.368 -1.041,0.306 -1.409,-0.122 L 2.939,50.08 C 2.816,49.896 2.572,49.774 2.327,49.836 1.898,49.896 1.653,50.264 1.775,50.692 l 2.817,9.063 C 4.776,60.367 4.47,60.979 3.857,61.163 3.306,61.347 2.694,61.041 2.449,60.551 l -4.102,-9.43 c -0.062,-0.183 -0.306,-0.306 -0.552,-0.306 -0.244,0.061 -0.489,0.246 -0.428,0.551 l 0.245,12.124 c 0,0.613 -0.429,1.163 -1.102,1.225 -0.674,0.061 -1.286,-0.429 -1.347,-1.103 L -6.185,51.979 c -0.061,-0.306 -0.245,-0.491 -0.551,-0.491 -0.306,0 -0.551,0.185 -0.612,0.429 l -2.327,9.308 c -0.122,0.612 -0.796,0.979 -1.408,0.796 -0.49,-0.184 -0.857,-0.674 -0.735,-1.225 l 1.776,-11.328 c 0,0 0.184,-3.796 -1.409,-4.592 l -2.387,4.653 c -0.184,0.429 -0.552,0.735 -0.919,0.98 -0.49,0.245 -1.102,0.245 -1.408,-0.735 -0.184,-0.55 -0.123,-1.163 0.061,-1.714 0.184,-0.551 0.429,-1.47 0.735,-2.388 0.857,-2.94 2.143,-5.694 3.857,-8.205 0.735,-1.041 1.47,-1.96 2.205,-2.449 L -12.674,0 Z"
               style="fill:#ffffff;fill-opacity:1;fill-rule:nonzero;stroke:none"
               id="path4614" />
          </g>
          <g
             id="g4616"
             transform="translate(59.4351,291.9962)">
            <path
               d="m 0,0 -2.839,35.018 c 0.735,0.489 1.469,1.408 2.204,2.449 1.715,2.511 3,5.265 3.858,8.205 0.306,0.918 0.551,1.837 0.735,2.388 0.183,0.551 0.245,1.164 0.061,1.714 C 3.712,50.754 3.1,50.754 2.61,50.509 2.243,50.264 1.875,49.958 1.692,49.529 l -2.388,-4.653 c -1.592,0.796 -1.408,4.592 -1.408,4.592 l 1.775,11.328 c 0.123,0.551 -0.245,1.041 -0.734,1.225 -0.613,0.183 -1.287,-0.184 -1.409,-0.796 l -2.327,-9.308 c -0.061,-0.244 -0.306,-0.429 -0.612,-0.429 -0.306,0 -0.49,0.185 -0.551,0.491 l -1.347,11.633 c -0.062,0.674 -0.674,1.164 -1.347,1.103 -0.674,-0.062 -1.102,-0.612 -1.102,-1.225 l 0.244,-12.124 c 0.062,-0.305 -0.183,-0.49 -0.428,-0.551 -0.245,0 -0.49,0.123 -0.551,0.306 l -4.103,9.43 c -0.245,0.49 -0.857,0.796 -1.408,0.612 -0.612,-0.184 -0.918,-0.796 -0.735,-1.408 l 2.817,-9.063 c 0.122,-0.428 -0.122,-0.796 -0.551,-0.856 -0.245,-0.062 -0.49,0.06 -0.612,0.244 l -3.858,5.389 c -0.368,0.428 -0.98,0.49 -1.409,0.122 -0.306,-0.306 -0.367,-0.735 -0.183,-1.102 l 4.592,-9.675 c 1.531,-7.531 3.98,-10.042 3.98,-10.042 L -12.138,0.05 Z"
               style="fill:#ffffff;fill-opacity:1;fill-rule:nonzero;stroke:none"
               id="path4618" />
          </g>
          <g
             id="g4796"
             transform="translate(87.9473,296.8468)">
            <path
               d="m 0,0 -3.361,40.863 0.02,0.037 c 1.446,2.572 2.367,6.096 2.738,10.477 L 2.772,61.45 c 0.285,0.74 0.058,1.537 -0.563,1.988 -0.405,0.348 -0.847,0.46 -1.357,0.344 -0.514,-0.128 -0.928,-0.436 -1.132,-0.845 l -2.866,-5.087 1.627,8.544 c 0.17,1.016 -0.51,1.996 -1.548,2.225 -0.948,0.228 -1.943,-0.323 -2.416,-1.331 l -2.586,-8.559 -0.983,10.748 c -0.116,1.044 -0.979,1.834 -2.006,1.834 -1.087,0 -2.005,-0.919 -2.005,-2.005 V 58.677 l -2.961,8.01 c -0.165,0.494 -0.556,0.907 -1.022,1.082 -0.467,0.232 -1.029,0.233 -1.481,0.005 -0.818,-0.409 -1.251,-1.347 -1.03,-2.232 l 3.06,-10.956 c 0.063,-0.432 0.237,-1.862 0.002,-2.885 l -0.071,-0.305 -2.321,3.381 c -0.382,0.574 -0.851,0.946 -1.395,1.109 -0.669,0.302 -1.176,0.1 -1.42,-0.048 -0.461,-0.287 -0.741,-0.757 -0.854,-1.434 -0.113,-0.627 -0.005,-1.402 0.298,-2.129 0.233,-0.524 0.58,-1.333 0.931,-2.153 l 0.048,-0.112 c 1.277,-3.039 2.891,-5.63 4.936,-7.921 0.738,-0.853 1.471,-1.546 2.182,-2.063 l 0.062,-0.045 -2.675,-39.989 h -0.348 l 2.738,39.857 c -0.709,0.523 -1.437,1.214 -2.167,2.057 -2.063,2.314 -3.694,4.93 -4.982,7.996 l -0.048,0.112 c -0.351,0.819 -0.696,1.626 -0.931,2.152 -0.328,0.789 -0.44,1.6 -0.315,2.284 0.126,0.759 0.447,1.29 0.98,1.623 0.294,0.176 0.896,0.418 1.661,0.071 0.582,-0.173 1.116,-0.594 1.528,-1.212 l 1.952,-2.845 c 0.103,0.752 0.043,1.723 -0.06,2.442 l -3.058,10.943 c -0.253,1.012 0.241,2.083 1.173,2.549 0.529,0.264 1.187,0.264 1.715,0 0.537,-0.201 0.979,-0.667 1.171,-1.243 l 2.426,-6.56 v 9.088 c 0,1.236 1.045,2.28 2.281,2.28 1.168,0 2.149,-0.895 2.28,-2.081 l 0.855,-9.34 2.183,7.222 c 0.536,1.145 1.659,1.76 2.735,1.502 1.179,-0.262 1.952,-1.38 1.758,-2.544 l -1.313,-6.892 2.037,3.614 c 0.237,0.474 0.716,0.835 1.311,0.985 C 1.386,64.185 1.919,64.05 2.38,63.655 3.095,63.136 3.36,62.21 3.032,61.356 L -0.334,51.321 C -0.701,46.954 -1.626,43.404 -3.079,40.802 l 3.371,-40.81 -2.498,0.064 -3.115,41.433 0.279,0.349 c 0.017,0.023 2.002,2.755 2.603,9.906 l 0.065,0.267 2.964,8.789 -2.527,-4.482 c -0.344,-0.552 -0.878,-0.867 -1.467,-0.867 -0.543,0 -1.003,0.208 -1.33,0.601 C -5.072,56.459 -5.2,57 -5.067,57.465 l 1.773,9.296 c -0.003,0.024 -0.022,0.08 -0.049,0.08 -0.05,0 -0.107,-0.018 -0.107,-0.045 l -0.006,-0.04 -3,-9.859 c -0.201,-0.671 -0.809,-1.139 -1.479,-1.139 -0.814,0 -1.479,0.607 -1.545,1.413 l -1.226,12.121 c -0.042,0.115 -0.125,0.182 -0.168,0.182 -0.107,0 -0.168,-0.062 -0.168,-0.168 V 57.55 c 0,-0.815 -0.551,-1.476 -1.34,-1.607 -0.764,-0.191 -1.591,0.249 -1.867,1.009 l -3.369,9.003 c -0.014,0.01 -0.028,0.019 -0.041,0.028 h -0.015 c -0.015,-0.016 -0.029,-0.032 -0.037,-0.045 L -14.66,54.83 c 0.178,-1.061 0.597,-4.572 -1.346,-5.786 l -0.845,-0.564 -3.505,5.196 c -0.072,0.141 -0.182,0.302 -0.351,0.387 -0.006,-0.02 -0.01,-0.04 -0.01,-0.065 -0.057,-0.357 -0.002,-0.702 0.173,-1.109 0.244,-0.55 0.612,-1.408 0.98,-2.266 1.115,-2.699 2.694,-5.249 4.569,-7.372 0.776,-0.887 1.569,-1.595 2.233,-1.994 l 0.561,-0.352 -0.005,-0.081 -1.718,-40.832 h -1.173 l 2.611,40.768 -0.421,0.262 c -0.686,0.412 -1.502,1.14 -2.296,2.047 -1.894,2.146 -3.49,4.721 -4.615,7.447 -0.367,0.855 -0.735,1.713 -0.979,2.262 -0.197,0.46 -0.259,0.855 -0.194,1.243 -0.002,0.076 0.028,0.147 0.047,0.195 0.005,0.011 0.01,0.021 0.013,0.032 v 0.177 l 0.171,-0.048 c 0.269,-0.068 0.491,-0.263 0.641,-0.563 l 3.343,-4.953 0.62,0.414 c 1.802,1.125 1.395,4.492 1.227,5.496 l -3.063,11.167 c 0,0.118 0.086,0.205 0.162,0.281 l 0.041,0.04 h 0.237 l 0.082,-0.071 c 0.012,-0.011 -0.016,0.011 0,0 0.035,-0.022 0.106,-0.065 0.119,-0.159 l 3.361,-8.982 c 0.228,-0.629 0.91,-0.995 1.552,-0.834 0.664,0.111 1.12,0.66 1.12,1.337 v 11.756 c 0,0.261 0.182,0.444 0.444,0.444 0.184,0 0.356,-0.158 0.436,-0.4 l 1.232,-12.155 c 0.055,-0.663 0.602,-1.162 1.271,-1.162 0.549,0 1.049,0.388 1.215,0.945 l 2.995,9.841 c 0.013,0.174 0.17,0.298 0.382,0.298 0.187,0 0.322,-0.161 0.322,-0.383 L -4.799,57.4 c -0.111,-0.389 -0.004,-0.834 0.277,-1.171 0.273,-0.329 0.66,-0.501 1.118,-0.501 0.492,0 0.94,0.267 1.23,0.731 L 1.068,62.21 1.319,62.099 -2.109,51.934 -2.167,51.699 C -2.773,44.478 -4.741,41.78 -4.824,41.669 L -5.038,41.402 -1.955,0.05"
               style="fill:#871d91;fill-opacity:1;fill-rule:nonzero;stroke:none"
               id="path4798" />
          </g>
          <g
             id="g4800"
             transform="translate(67.8286,350.6613)">
            <path
               d="M 0,0 3.63,-4.606 C 5.536,-3.654 5.538,-1.115 5.41,0.17 5.373,0.543 5.295,0.908 5.188,1.268 L 2.043,11.94 c 0,0 -0.04,0.197 0.012,0.352 0.081,0.242 0.308,0.359 0.551,0.23 0.063,-0.033 0.111,-0.16 0.162,-0.307 L 5.995,3.554 C 6.24,2.88 6.975,2.451 7.709,2.635 8.444,2.758 8.677,3.37 8.677,4.104 v 11.195 c 0,0.183 0.088,0.447 0.257,0.518 0.167,0.071 0.572,0.104 0.617,-0.502 L 11.04,3.98 c 0.061,-0.735 0.409,-1.249 1.144,-1.249 0.612,0 1.163,0.429 1.347,1.041 l 2.664,8.75 c 0,0 0.124,0.385 0.199,0.483 0.093,0.119 0.201,0.235 0.471,0.094 0.057,-0.03 0.118,-0.141 0.094,-0.356 L 15.601,3.897 C 15.599,3.893 15.598,3.889 15.597,3.885 15.408,2.71 16.374,2.13 17.243,2.604 c 0.221,0.121 0.451,0.314 0.676,0.614 l 3.151,5.224 c 0.193,0.329 0.673,0.141 0.584,-0.233 L 17.878,-2.014 17.817,-2.258 c -0.612,-7.287 -2.633,-9.981 -2.633,-9.981 l -0.245,-0.306 2.786,-41.395 1.955,-0.051 -2.782,40.834 c 0.551,0.979 2.205,4.041 2.756,10.531 L 23.021,7.416 C 23.328,8.212 23.083,9.069 22.409,9.56 21.98,9.927 21.491,10.049 20.939,9.927 20.45,9.805 19.96,9.498 19.715,9.009 l -2.449,-4.348 1.469,7.715 c 0.184,1.103 -0.551,2.144 -1.653,2.388 -1.041,0.245 -2.158,-0.288 -2.572,-1.409 L 12.123,5.457 11.204,15.499 C 11.065,16.746 9.908,17.679 8.619,17.412 7.6,17.202 6.917,16.228 6.917,15.188 V 5.457 l -2.693,7.286 c -0.184,0.552 -0.613,0.981 -1.103,1.164 -0.49,0.244 -1.102,0.244 -1.592,0 C 0.672,13.479 0.182,12.499 0.427,11.519 L 3.489,0.559 c 0.122,-0.858 0.183,-2.021 0,-2.817 L 1.346,0.864 C 0.978,1.416 0.488,1.845 -0.124,2.028 -0.797,2.334 -1.349,2.15 -1.655,1.967 -2.145,1.66 -2.451,1.171 -2.573,0.436 c -0.123,-0.673 0,-1.469 0.306,-2.205 0.245,-0.55 0.612,-1.408 0.979,-2.265 1.287,-3.062 2.94,-5.695 4.96,-7.96 0.796,-0.919 1.531,-1.592 2.204,-2.082 L 3.825,-54.993 H 5.68 l 2.095,41.836 -0.49,0.305 c -0.612,0.368 -1.409,1.041 -2.265,2.021 -1.837,2.082 -3.43,4.593 -4.593,7.409 -0.367,0.858 -0.918,2.144 -1.163,2.694 0,0 -0.098,0.196 -0.104,0.369 C -0.853,-0.026 -0.546,0.429 0,0"
               style="fill:#ffffff;fill-opacity:1;fill-rule:nonzero;stroke:none"
               id="path4802" />
          </g>
        </g>
      </g>
    </g>
  </g>
</svg>
