<?xml version="1.0" encoding="UTF-8" standalone="no"?>
<svg
   xmlns:svg="http://www.w3.org/2000/svg"
   xmlns="http://www.w3.org/2000/svg"
   id="svg7361"
   version="1.1"
   viewBox="0 0 29.986111 29.986111"
   height="29.986111mm"
   width="29.986111mm">
  <g
     transform="translate(-104.44742,-136.86409)"
     id="layer1">
    <g
       transform="matrix(0.35277777,0,0,-0.35277777,91.909805,367.58562)"
       id="g5984">
      <g
         id="g4600"
         transform="translate(105.8667,653.5138)">
        <path
           d="m 0,0 h -55.654 c -7.827,0 -14.173,-6.346 -14.173,-14.173 v -55.654 c 0,-7.828 6.346,-14.173 14.173,-14.173 h 12.795 l 3.337,21.662 c -0.978,1.737 -3.91,7.167 -4.887,18.677 l -5.972,17.81 c -0.543,1.412 -0.109,2.932 1.086,3.801 0.76,0.651 1.725,0.647 2.703,0.43 0.868,-0.217 1.737,-0.76 2.172,-1.629 l 4.246,-7.489 -2.606,13.683 c -0.325,1.954 0.977,3.801 2.932,4.235 1.846,0.434 3.692,-0.652 4.561,-2.498 l 4.235,-14.008 1.629,17.809 c 0.217,1.955 1.846,3.475 3.801,3.475 2.063,0 3.801,-1.737 3.801,-3.801 v -17.483 l 4.778,12.923 c 0.326,0.977 1.085,1.737 1.955,2.063 0.868,0.434 1.954,0.434 2.823,0 1.52,-0.761 2.389,-2.498 1.954,-4.235 l -5.429,-19.439 c -0.218,-1.52 -0.326,-3.583 0,-4.995 l 3.801,5.538 c 0.651,0.978 1.52,1.738 2.606,2.064 1.194,0.543 2.172,0.217 2.715,-0.109 0.868,-0.543 1.411,-1.412 1.629,-2.715 0.217,-1.194 0,-2.606 -0.543,-3.909 -0.435,-0.978 -1.086,-2.498 -1.738,-4.018 -2.28,-5.43 -5.212,-10.099 -8.796,-14.117 -1.412,-1.629 -2.715,-2.824 -3.909,-3.692 L -17.441,-84 H 0 c 7.828,0 14.173,6.345 14.173,14.173 v 55.654 C 14.173,-6.346 7.828,0 0,0"
           style="fill:#871d91;fill-opacity:1;fill-rule:nonzero;stroke:none"
           id="path4602" />
      </g>
      <g
         id="g4604"
         transform="translate(105.8667,653.5138)">
        <path
           d="m 0,0 h -55.654 c -7.827,0 -14.173,-6.346 -14.173,-14.173 v -55.654 c 0,-7.828 6.346,-14.173 14.173,-14.173 h 12.795 l 3.337,21.662 c -0.978,1.737 -3.91,7.167 -4.887,18.677 l -5.972,17.81 c -0.543,1.412 -0.109,2.932 1.086,3.801 0.76,0.651 1.725,0.647 2.703,0.43 0.868,-0.217 1.737,-0.76 2.172,-1.629 l 4.246,-7.489 -2.606,13.683 c -0.325,1.954 0.977,3.801 2.932,4.235 1.846,0.434 3.692,-0.652 4.561,-2.498 l 4.235,-14.008 1.629,17.809 c 0.217,1.955 1.846,3.475 3.801,3.475 2.063,0 3.801,-1.737 3.801,-3.801 v -17.483 l 4.778,12.923 c 0.326,0.977 1.085,1.737 1.955,2.063 0.868,0.434 1.954,0.434 2.823,0 1.52,-0.761 2.389,-2.498 1.954,-4.235 l -5.429,-19.439 c -0.218,-1.52 -0.326,-3.583 0,-4.995 l 3.801,5.538 c 0.651,0.978 1.52,1.738 2.606,2.064 1.194,0.543 2.172,0.217 2.715,-0.109 0.868,-0.543 1.411,-1.412 1.629,-2.715 0.217,-1.194 0,-2.606 -0.543,-3.909 -0.435,-0.978 -1.086,-2.498 -1.738,-4.018 -2.28,-5.43 -5.212,-10.099 -8.796,-14.117 -1.412,-1.629 -2.715,-2.824 -3.909,-3.692 L -17.441,-84 H 0 c 7.828,0 14.173,6.345 14.173,14.173 v 55.654 C 14.173,-6.346 7.828,0 0,0 Z"
           style="fill:none;stroke:#871d91;stroke-width:1;stroke-linecap:butt;stroke-linejoin:miter;stroke-miterlimit:10;stroke-dasharray:none;stroke-opacity:1"
           id="path4606" />
      </g>
      <g
         id="g4608"
         transform="translate(67.5713,637.2023)">
        <path
           d="m 0,0 5.298,-17.216 c 0.326,-1.086 1.304,-1.846 2.389,-1.846 1.304,0 1.837,0.726 1.946,2.029 l 2.172,21.502 c 0.108,0.325 0.325,0.543 0.543,0.543 0.325,0 1.027,0 0.965,-0.575 l 0.25,-20.812 c 0,-1.303 0.509,-1.97 1.812,-2.187 1.303,-0.326 2.231,0.434 2.666,1.628 l 5.834,15.684 c 0.437,0.938 1.937,0.563 1.577,-0.629 l -4.681,-18.767 c -0.217,-1.303 -1.513,-6.166 0.904,-8.398 0,0 1.099,-0.904 2.179,0.43 l 4.917,5.885 c 0,0 2.291,2.104 1.318,-2.009 -0.246,-1.041 -1.086,-2.498 -1.737,-4.018 -2.064,-4.995 -4.887,-9.448 -8.145,-13.14 -1.52,-1.737 -3.299,-2.937 -4.385,-3.588 l -0.868,-0.543 2.68,-21.716 -18.941,0.109 3.556,22.693 -0.435,0.543 c 0,0 -3.853,4.663 -4.939,17.586 l -0.109,0.434 -6.115,16.425 c -0.276,1.765 1.474,1.015 1.474,1.015 l 5.585,-9.506 c 0.543,-0.869 1.412,-1.412 2.389,-1.412 0.869,0 1.081,0.234 1.374,0.568 0.561,0.637 0.558,1.93 0.341,2.69 l -3.376,16.161 c 0,0 -0.125,0.687 0.546,0.875 C -0.76,0.51 -0.388,0.552 0,0"
           style="fill:#871d91;fill-opacity:1;fill-rule:nonzero;stroke:none"
           id="path4610" />
      </g>
    </g>
  </g>
</svg>
